<svg width="146" height="109" viewBox="0 0 146 109" fill="none" xmlns="http://www.w3.org/2000/svg">
<g clip-path="url(#clip0_4044_841)">
<path d="M89.1104 88.2093V76.5267V61.3392C97.9425 60.5603 119.192 61.573 113.269 68.7384L113.074 68.9739C105.825 77.7434 103.569 80.4725 108.203 86.2623C112.879 92.1034 108.203 97.5553 103.528 92.8822C99.7869 89.144 92.2276 88.2093 89.1104 88.2093Z" fill="#403366"/>
<path d="M89.3573 88.2093V76.5267V61.3392C80.5251 60.5603 59.2759 61.573 65.1987 68.7384L65.3933 68.9739C72.6428 77.7434 74.8988 80.4725 70.2642 86.2623C65.5883 92.1034 70.2642 97.5553 74.9401 92.8822C78.6807 89.144 86.2401 88.2093 89.3573 88.2093Z" fill="#403366"/>
<path d="M82.0967 91.0056V87.8902V87.1113H96.1243V91.0056H82.0967Z" fill="#403366"/>
<path d="M108.917 89.8892C107.873 88.0805 105.026 86.78 104.077 87.3276C103.128 87.8752 103.206 89.7854 104.251 91.5941C105.296 93.4029 106.912 94.4256 107.861 93.878C108.81 93.3305 109.962 91.698 108.917 89.8892Z" fill="#F4F2FF"/>
<path d="M69.5328 89.8892C70.5777 88.0805 73.4243 86.78 74.3732 87.3276C75.3222 87.8752 75.2444 89.7854 74.1995 91.5941C73.1546 93.4029 71.5383 94.4256 70.5893 93.878C69.6403 93.3305 68.4878 91.698 69.5328 89.8892Z" fill="#F4F2FF"/>
<path d="M95.7129 89.083C95.4198 88.2618 94.3486 87.514 93.9178 87.6676C93.487 87.8212 93.3753 88.6114 93.6684 89.4327C93.9615 90.2539 94.5484 90.7951 94.9792 90.6415C95.4101 90.4879 96.006 89.9042 95.7129 89.083Z" fill="#F4F2FF"/>
<path d="M82.4394 89.083C82.7325 88.2618 83.8037 87.514 84.2345 87.6676C84.6653 87.8212 84.777 88.6114 84.4839 89.4327C84.1908 90.2539 83.6039 90.7951 83.1731 90.6415C82.7422 90.4879 82.1463 89.9042 82.4394 89.083Z" fill="#F4F2FF"/>
<path d="M93.1886 88.8526C92.8955 88.0313 91.8243 87.2836 91.3934 87.4372C90.9625 87.5908 90.8509 88.381 91.144 89.2022C91.4371 90.0234 92.024 90.5646 92.4548 90.411C92.8856 90.2574 93.4817 89.6737 93.1886 88.8526Z" fill="#F4F2FF"/>
<path d="M84.9638 88.8526C85.2569 88.0313 86.3281 87.2836 86.7589 87.4372C87.1898 87.5908 87.3015 88.381 87.0084 89.2022C86.7153 90.0234 86.1284 90.5646 85.6975 90.411C85.2667 90.2574 84.6707 89.6737 84.9638 88.8526Z" fill="#F4F2FF"/>
<path d="M90.6138 89.5502C90.6138 88.7698 89.9356 87.4307 89.0989 87.4307C88.2622 87.4307 87.584 88.7698 87.584 89.5502C87.584 90.3306 88.2622 90.9633 89.0989 90.9633C89.9356 90.9633 90.6138 90.3306 90.6138 89.5502Z" fill="#F4F2FF"/>
<path d="M99.2414 89.5355C99.2414 91.5901 92.4873 94.8997 89.1104 94.8997V89.5354C92.4873 89.3641 99.2414 87.4808 99.2414 89.5355Z" fill="#6C5C99"/>
<path d="M78.9795 89.5354C78.9795 91.5901 85.7335 94.8996 89.1105 94.8996V89.5355C85.7335 89.3643 78.9795 87.4808 78.9795 89.5354Z" fill="#6C5C99"/>
<path d="M91.4483 81.8233C91.4483 83.0278 90.4016 85.0945 89.1104 85.0945C87.8192 85.0945 86.7725 83.0278 86.7725 81.8233C86.7725 80.619 87.8192 79.6426 89.1104 79.6426C90.4016 79.6426 91.4483 80.619 91.4483 81.8233Z" fill="#F4F2FF"/>
<path d="M99.3188 80.1398C98.8665 81.4072 97.2134 82.5612 96.5484 82.3241C95.8835 82.0871 95.7111 80.8675 96.1635 79.6002C96.6158 78.3328 97.5215 77.4975 98.1865 77.7345C98.8514 77.9716 99.7711 78.8724 99.3188 80.1398Z" fill="#F4F2FF"/>
<path d="M95.4223 81.6974C94.97 82.9648 93.3169 84.1188 92.6519 83.8817C91.987 83.6447 91.8146 82.4251 92.267 81.1578C92.7193 79.8904 93.625 79.0551 94.29 79.2922C94.9549 79.5292 95.8747 80.43 95.4223 81.6974Z" fill="#F4F2FF"/>
<path d="M78.8333 80.1398C79.2857 81.4072 80.9388 82.5612 81.6038 82.3241C82.2687 82.0871 82.4411 80.8675 81.9887 79.6002C81.5364 78.3328 80.6306 77.4975 79.9657 77.7345C79.3008 77.9716 78.381 78.8724 78.8333 80.1398Z" fill="#F4F2FF"/>
<path d="M82.7298 81.6974C83.1821 82.9648 84.8353 84.1188 85.5003 83.8817C86.1652 83.6447 86.3376 82.4251 85.8852 81.1578C85.4329 79.8904 84.5271 79.0551 83.8622 79.2922C83.1973 79.5292 82.2775 80.43 82.7298 81.6974Z" fill="#F4F2FF"/>
<path d="M72.8605 73.1394C72.9857 74.4808 71.1688 77.1372 70.2447 78.2978L59.4668 72.984C60.3673 72.3682 62.6913 70.858 64.7843 69.7438C67.4003 68.3511 69.8035 71.8607 70.941 72.0738C72.0785 72.2869 72.704 71.4626 72.8605 73.1394Z" fill="#403366"/>
<path d="M63.8586 71.9427C68.2037 70.8738 70.7879 74.3389 71.5369 76.2051C69.9592 84.6177 62.4425 85.3713 60.1628 85.3713C57.1584 85.3713 51.7033 82.4378 54.4309 76.9859C56.7688 73.4811 59.5136 73.0116 63.8586 71.9427Z" fill="#403366"/>
<path d="M67.4661 67.2459C66.17 66.8758 63.2228 68.1711 61.9111 68.8651L65.1516 80.4311C65.9231 79.6601 67.8365 77.6553 69.3179 75.8047C71.1695 73.4915 68.1605 70.4843 68.1605 69.3277C68.1605 68.1711 69.0864 67.7085 67.4661 67.2459Z" fill="#6C5C99"/>
<path d="M59.6642 81.7806C59.5339 82.2782 59.6338 83.2168 60.0329 83.3212C60.432 83.4256 60.9791 82.6563 61.1094 82.1587C61.2398 81.6611 61.0219 81.1731 60.6228 81.0686C60.2237 80.9643 59.7946 81.283 59.6642 81.7806Z" fill="#F4F2FF"/>
<path d="M59.5154 81.9601C59.5171 82.4745 59.1857 83.3582 58.7731 83.3596C58.3606 83.361 58.0232 82.4794 58.0215 81.9651C58.0198 81.4507 58.3528 81.0326 58.7653 81.0313C59.1779 81.0299 59.5137 81.4457 59.5154 81.9601Z" fill="#F4F2FF"/>
<path d="M57.8736 81.0013C58.0039 81.4989 57.904 82.4375 57.5049 82.5418C57.1059 82.6462 56.5587 81.8769 56.4284 81.3793C56.298 80.8817 56.5159 80.3937 56.915 80.2893C57.3141 80.1849 57.7433 80.5037 57.8736 81.0013Z" fill="#F4F2FF"/>
<path d="M67.9982 76.4985C69.8499 72.4272 66.9181 69.2505 65.2207 68.1709C56.6566 68.1709 55.0366 75.5731 54.1108 77.6551C53.3701 79.3205 55.6 82.2814 61.5174 82.2814C65.6143 82.2814 66.1465 80.5697 67.9982 76.4985Z" fill="#6C5C99"/>
<path d="M62.223 81.9334C62.6128 81.2587 63.7205 80.3538 64.2617 80.6661C64.8029 80.9784 64.5727 82.3895 64.1829 83.0643C63.793 83.7391 63.0382 84.0331 62.4971 83.7207C61.9558 83.4085 61.8331 82.6083 62.223 81.9334Z" fill="#F4F2FF"/>
<path d="M55.8897 80.6605C55.89 79.8814 55.4768 78.5441 54.9665 78.5439C54.4563 78.5438 54.0422 79.8808 54.042 80.66C54.0418 81.4392 54.4552 82.071 54.9654 82.0712C55.4756 82.0713 55.8895 81.4398 55.8897 80.6605Z" fill="#F4F2FF"/>
<path d="M105.212 73.1394C105.087 74.4808 106.904 77.1372 107.828 78.2978L118.606 72.984C117.705 72.3682 115.382 70.858 113.288 69.7438C110.672 68.3511 108.269 71.8607 107.132 72.0738C105.994 72.2869 105.369 71.4626 105.212 73.1394Z" fill="#403366"/>
<path d="M114.553 71.9427C110.208 70.8738 107.624 74.3389 106.875 76.2051C108.453 84.6176 115.97 85.3713 118.249 85.3713C126.516 85.3713 123.399 76.9861 123.399 76.9861C121.451 73.0919 118.898 73.0115 114.553 71.9427Z" fill="#403366"/>
<path d="M110.266 67.2459C111.563 66.8758 114.51 68.1711 115.822 68.8651L112.581 80.4311C111.81 79.6601 109.896 77.6553 108.415 75.8047C106.563 73.4915 109.572 70.4843 109.572 69.3277C109.572 68.1711 108.646 67.7085 110.266 67.2459Z" fill="#6C5C99"/>
<path d="M118.068 81.7816C118.198 82.2792 118.098 83.2177 117.699 83.3222C117.3 83.4265 116.753 82.6573 116.623 82.1597C116.493 81.6621 116.71 81.174 117.109 81.0696C117.508 80.9652 117.937 81.284 118.068 81.7816Z" fill="#F4F2FF"/>
<path d="M118.216 81.9602C118.214 82.4745 118.545 83.3583 118.959 83.3597C119.371 83.3611 119.708 82.4795 119.71 81.9652C119.711 81.4507 119.379 81.0327 118.966 81.0313C118.553 81.0299 118.217 81.4458 118.216 81.9602Z" fill="#F4F2FF"/>
<path d="M119.857 81.0023C119.727 81.4999 119.827 82.4384 120.226 82.5429C120.625 82.6472 121.172 81.878 121.303 81.3804C121.433 80.8828 121.215 80.3947 120.816 80.2903C120.417 80.1859 119.988 80.5047 119.857 81.0023Z" fill="#F4F2FF"/>
<path d="M109.735 76.4985C107.883 72.4272 110.815 69.2505 112.512 68.1709C121.076 68.1709 122.696 75.5731 123.622 77.6551C124.363 79.3205 122.62 82.2814 116.215 82.2814C112.118 82.2814 111.586 80.5697 109.735 76.4985Z" fill="#6C5C99"/>
<path d="M115.508 81.9334C115.118 81.2587 114.011 80.3538 113.469 80.6661C112.928 80.9784 113.158 82.3895 113.548 83.0643C113.938 83.7391 114.693 84.0331 115.234 83.7207C115.775 83.4085 115.898 82.6083 115.508 81.9334Z" fill="#F4F2FF"/>
<path d="M121.842 80.6605C121.841 79.8814 122.254 78.5441 122.764 78.5439C123.275 78.5438 123.689 79.8808 123.689 80.66C123.69 81.4392 123.276 82.071 122.766 82.0712C122.256 82.0713 121.842 81.4398 121.842 80.6605Z" fill="#F4F2FF"/>
<mask id="mask0_4044_841" style="mask-type:alpha" maskUnits="userSpaceOnUse" x="54" y="67" width="68" height="19">
<path d="M72.8605 73.1394C72.9857 74.4808 71.1688 77.1372 70.2447 78.2978L59.4668 72.984C60.3672 72.3682 62.6913 70.858 64.7842 69.7438C67.4003 68.3511 69.8034 71.8607 70.9409 72.0738C72.0784 72.2869 72.704 71.4626 72.8605 73.1394Z" fill="#403366"/>
<path d="M62.8813 70.2005C67.2264 69.1316 69.8105 72.5967 70.5595 74.4629C68.9818 82.8755 61.4035 83.1031 59.1855 83.6291C57.4111 84.0498 56.3225 78.3858 56 75.5013C56.7547 71.4769 58.5363 71.2694 62.8813 70.2005Z" fill="#9F7137"/>
<path d="M67.4652 67.2459C66.169 66.8758 63.2218 68.1711 61.9102 68.8651L65.1506 80.4311C65.9221 79.6601 67.8355 77.6553 69.3169 75.8047C71.1685 73.4915 68.1595 70.4843 68.1595 69.3277C68.1595 68.1711 69.0854 67.7085 67.4652 67.2459Z" fill="#6C5C99"/>
<path d="M67.9979 76.4985C69.8495 72.4272 66.9178 69.2505 65.2203 68.1709C56.6562 68.1709 55.0362 75.5731 54.1104 77.6551C53.3698 79.3205 58.7395 81.4332 61.5171 82.2814C65.6139 82.2814 66.1462 80.5697 67.9979 76.4985Z" fill="#6C5C99"/>
<path d="M105.212 73.1394C105.087 74.4808 106.904 77.1372 107.828 78.2978L118.606 72.984C117.705 72.3682 115.381 70.858 113.289 69.7438C110.672 68.3511 108.269 71.8607 107.132 72.0738C105.994 72.2869 105.369 71.4626 105.212 73.1394Z" fill="#403366"/>
<path d="M114.553 71.9427C110.208 70.8738 107.624 74.3389 106.875 76.2051C108.453 84.6177 116.031 84.8453 118.249 85.3713C120.023 85.792 121.112 80.128 121.435 77.2435C120.679 73.2191 118.898 73.0115 114.553 71.9427Z" fill="#403366"/>
<path d="M110.266 67.2459C111.563 66.8758 114.51 68.1711 115.821 68.8651L112.581 80.4311C111.809 79.6601 109.896 77.6553 108.415 75.8047C106.563 73.4915 109.572 70.4843 109.572 69.3277C109.572 68.1711 108.646 67.7085 110.266 67.2459Z" fill="#6C5C99"/>
</mask>
<g mask="url(#mask0_4044_841)">
<path d="M110.552 76.1752C111.093 78.1926 110 81.1238 108.942 81.4072C107.883 81.6907 106.587 80.285 106.046 78.2676C105.505 76.2502 105.924 74.3851 106.983 74.1016C108.041 73.8181 110.011 74.1578 110.552 76.1752Z" fill="#403366"/>
<path d="M105.31 75.057C105.797 71.5384 103.565 70.2184 102.388 69.9982C103.196 66.9838 105.394 61.3387 107.721 62.874C110.629 64.7931 112.045 68.0232 111.826 73.0959C111.607 78.1687 104.701 79.4552 105.31 75.057Z" fill="#403366"/>
<path d="M67.3716 76.0609C66.8306 78.0783 67.9235 81.0095 68.9819 81.293C70.0403 81.5764 71.3369 80.1707 71.8777 78.1534C72.4186 76.1359 71.999 74.2708 70.9406 73.9873C69.8821 73.7038 67.9124 74.0435 67.3716 76.0609Z" fill="#403366"/>
<path d="M73.0117 75.1722C72.5247 71.6537 74.757 70.3336 75.9341 70.1135C75.1258 67.099 72.9278 61.4539 70.601 62.9892C67.6925 64.9083 66.2766 68.1384 66.4957 73.2111C66.7148 78.2838 73.6204 79.5705 73.0117 75.1722Z" fill="#403366"/>
</g>
<path d="M105.949 76.9994C105.408 79.0168 102.995 81.0093 101.937 80.7258C100.879 80.4423 100.459 78.5772 101 76.5597C101.541 74.5424 102.837 73.1367 103.896 73.4201C104.954 73.7036 106.49 74.982 105.949 76.9994Z" fill="#F4F2FF"/>
<path d="M101.969 73.4116C104.151 70.6078 102.878 68.3491 101.969 67.5703C104.177 65.3636 108.905 61.5732 110.152 64.0655C111.711 67.1808 111.321 70.6857 108.593 74.9693C105.866 79.253 99.2415 76.9164 101.969 73.4116Z" fill="#8976C0"/>
<path d="M71.9441 76.9994C72.485 79.0168 74.8979 81.0093 75.9563 80.7258C77.0148 80.4423 77.4343 78.5772 76.8934 76.5597C76.3525 74.5424 75.0561 73.1367 73.9976 73.4201C72.9391 73.7036 71.4033 74.982 71.9441 76.9994Z" fill="#F4F2FF"/>
<path d="M76.3845 73.4116C74.2024 70.6078 75.4753 68.3491 76.3845 67.5703C74.1764 65.3636 69.4486 61.5732 68.2017 64.0655C66.643 67.1808 67.0328 70.6857 69.7604 74.9693C72.488 79.253 79.1121 76.9164 76.3845 73.4116Z" fill="#8976C0"/>
<path d="M98.136 77.4784C93.0498 82.209 85.1708 82.209 80.0847 77.4784L68.5482 66.7482C59.7391 58.5549 65.5401 43.8154 77.5738 43.8154H100.647C112.681 43.8154 118.482 58.5549 109.673 66.7482L98.136 77.4784Z" fill="#6C5C99"/>
<path d="M103.917 71.8541L99.631 73.4118H89.1104V33.6907L90.4951 33.7829C93.4418 33.9793 96.3246 34.7318 98.9909 36.0008L100.346 36.6458C102.139 37.4991 104.195 37.6249 106.16 37.3403C108.211 37.0434 110.035 36.7652 112.879 34.0802C115.217 31.8735 116.152 28.0886 116.386 24.3446C116.776 18.1137 112.452 6.12784 128.076 24.3446C132.752 29.7964 126.128 39.1426 133.531 40.3109C140.934 41.4791 145.221 23.5657 145.61 40.3109C145.846 50.4187 141.807 55.1021 138.247 56.9039C137.071 57.4996 136.254 56.1405 136.414 54.832C136.672 52.7422 135.017 51.0907 128.076 52.7724C115.217 55.8878 117.945 69.5176 112.879 68.7387C108.827 68.1157 105.216 70.556 103.917 71.8541Z" fill="#6C5C99"/>
<path d="M74.7029 71.8541L78.9891 73.4118H89.5098V33.6907L88.1251 33.7829C85.1783 33.9793 82.2956 34.7318 79.6292 36.0008L78.2739 36.6458C76.4808 37.4991 74.4256 37.6249 72.4601 37.3403C70.4095 37.0434 68.5855 36.7652 65.7408 34.0802C63.4029 31.8735 62.4681 28.0886 62.2339 24.3446C61.8443 18.1137 66.1681 6.12784 50.5443 24.3446C45.8684 29.7964 52.4926 39.1426 45.0891 40.3109C37.6857 41.4791 33.3995 23.5657 33.0098 40.3109C32.7746 50.4187 36.8135 55.1021 40.3728 56.9039C41.5496 57.4996 42.3661 56.1405 42.2054 54.832C41.9487 52.7422 43.6031 51.0907 50.5443 52.7724C63.4029 55.8878 60.6753 69.5176 65.7408 68.7387C69.7933 68.1157 73.404 70.556 74.7029 71.8541Z" fill="#6C5C99"/>
<mask id="mask1_4044_841" style="mask-type:alpha" maskUnits="userSpaceOnUse" x="54" y="63" width="68" height="32">
<path d="M108.917 89.8892C107.873 88.0805 105.026 86.78 104.077 87.3276C103.128 87.8752 103.206 89.7854 104.251 91.5941C105.296 93.4029 106.912 94.4256 107.861 93.878C108.81 93.3305 109.962 91.698 108.917 89.8892Z" fill="#F4F2FF"/>
<path d="M69.5328 89.8892C70.5777 88.0805 73.4243 86.78 74.3732 87.3276C75.3222 87.8752 75.2444 89.7854 74.1995 91.5941C73.1546 93.4029 71.5383 94.4256 70.5893 93.878C69.6403 93.3305 68.4878 91.698 69.5328 89.8892Z" fill="#F4F2FF"/>
<path d="M95.7129 89.083C95.4198 88.2618 94.3486 87.514 93.9178 87.6676C93.487 87.8212 93.3753 88.6114 93.6684 89.4327C93.9615 90.2539 94.5484 90.7951 94.9792 90.6415C95.4101 90.4879 96.006 89.9042 95.7129 89.083Z" fill="#F4F2FF"/>
<path d="M82.4394 89.083C82.7325 88.2618 83.8037 87.514 84.2345 87.6676C84.6653 87.8212 84.777 88.6114 84.4839 89.4327C84.1908 90.2539 83.6039 90.7951 83.1731 90.6415C82.7422 90.4879 82.1463 89.9042 82.4394 89.083Z" fill="#F4F2FF"/>
<path d="M93.1886 88.8526C92.8955 88.0313 91.8243 87.2836 91.3934 87.4372C90.9625 87.5908 90.8509 88.381 91.144 89.2022C91.4371 90.0234 92.024 90.5646 92.4548 90.411C92.8856 90.2574 93.4817 89.6737 93.1886 88.8526Z" fill="#F4F2FF"/>
<path d="M84.9638 88.8526C85.2569 88.0313 86.3281 87.2836 86.7589 87.4372C87.1898 87.5908 87.3015 88.381 87.0084 89.2022C86.7153 90.0234 86.1284 90.5646 85.6975 90.411C85.2667 90.2574 84.6707 89.6737 84.9638 88.8526Z" fill="#F4F2FF"/>
<path d="M90.6128 89.5502C90.6128 88.7698 89.9346 87.4307 89.0979 87.4307C88.2612 87.4307 87.583 88.7698 87.583 89.5502C87.583 90.3306 88.2612 90.9633 89.0979 90.9633C89.9346 90.9633 90.6128 90.3306 90.6128 89.5502Z" fill="#F4F2FF"/>
<path d="M91.4483 80.2648C91.4483 81.4692 90.4016 83.5359 89.1104 83.5359C87.8192 83.5359 86.7725 81.4692 86.7725 80.2648C86.7725 79.0604 87.8192 78.084 89.1104 78.084C90.4016 78.084 91.4483 79.0604 91.4483 80.2648Z" fill="#F4F2FF"/>
<path d="M99.3188 78.5822C98.8665 79.8496 97.2134 81.0036 96.5484 80.7665C95.8835 80.5295 95.7111 79.3099 96.1635 78.0426C96.6158 76.7752 97.5215 75.9399 98.1865 76.1769C98.8514 76.414 99.7711 77.3148 99.3188 78.5822Z" fill="#F4F2FF"/>
<path d="M95.4223 80.1398C94.97 81.4072 93.3169 82.5612 92.6519 82.3241C91.987 82.0871 91.8146 80.8675 92.267 79.6002C92.7193 78.3328 93.625 77.4975 94.29 77.7345C94.9549 77.9716 95.8747 78.8724 95.4223 80.1398Z" fill="#F4F2FF"/>
<path d="M78.8333 78.5822C79.2857 79.8496 80.9388 81.0036 81.6038 80.7665C82.2687 80.5295 82.4411 79.3099 81.9887 78.0426C81.5364 76.7752 80.6306 75.9399 79.9657 76.1769C79.3008 76.414 78.381 77.3148 78.8333 78.5822Z" fill="#F4F2FF"/>
<path d="M82.7298 80.1398C83.1821 81.4072 84.8353 82.5612 85.5003 82.3241C86.1652 82.0871 86.3376 80.8675 85.8852 79.6002C85.4329 78.3328 84.5271 77.4975 83.8622 77.7345C83.1973 77.9716 82.2775 78.8724 82.7298 80.1398Z" fill="#F4F2FF"/>
<path d="M72.8605 73.1394C72.9857 74.4808 71.1688 77.1372 70.2447 78.2978L59.4668 72.984C60.3672 72.3682 62.6913 70.858 64.7842 69.7438C67.4003 68.3511 69.8034 71.8607 70.9409 72.0738C72.0784 72.2869 72.704 71.4626 72.8605 73.1394Z" fill="#403366"/>
<path d="M63.8813 72.2005C68.2264 71.1316 70.8105 74.5967 71.5595 76.4629C69.9818 84.8755 62.4035 85.1031 60.1855 85.6291C58.4111 86.0498 57.3225 80.3858 57 77.5013C57.7547 73.4769 59.5363 73.2694 63.8813 72.2005Z" fill="#9F7137"/>
<path d="M67.4652 67.2459C66.169 66.8758 63.2218 68.1711 61.9102 68.8651L65.1506 80.4311C65.9221 79.6601 67.8355 77.6553 69.3169 75.8047C71.1685 73.4915 68.1595 70.4843 68.1595 69.3277C68.1595 68.1711 69.0854 67.7085 67.4652 67.2459Z" fill="#6C5C99"/>
<path d="M67.9979 76.4985C69.8495 72.4272 66.9178 69.2505 65.2203 68.1709C56.6562 68.1709 55.0362 75.5731 54.1104 77.6551C53.3698 79.3205 58.7395 81.4332 61.5171 82.2814C65.6139 82.2814 66.1462 80.5697 67.9979 76.4985Z" fill="#6C5C99"/>
<path d="M105.212 73.1394C105.087 74.4808 106.904 77.1372 107.828 78.2978L118.606 72.984C117.705 72.3682 115.381 70.858 113.289 69.7438C110.672 68.3511 108.269 71.8607 107.132 72.0738C105.994 72.2869 105.369 71.4626 105.212 73.1394Z" fill="#403366"/>
<path d="M114.553 71.9427C110.208 70.8738 107.624 74.3389 106.875 76.2051C108.453 84.6177 116.031 84.8453 118.249 85.3713C120.023 85.792 121.112 80.128 121.435 77.2435C120.679 73.2191 118.898 73.0115 114.553 71.9427Z" fill="#403366"/>
<path d="M110.266 67.2459C111.563 66.8758 114.51 68.1711 115.821 68.8651L112.581 80.4311C111.809 79.6601 109.896 77.6553 108.415 75.8047C106.563 73.4915 109.572 70.4843 109.572 69.3277C109.572 68.1711 108.646 67.7085 110.266 67.2459Z" fill="#6C5C99"/>
<path d="M105.949 76.9994C105.408 79.0168 102.995 81.0093 101.937 80.7258C100.879 80.4423 100.459 78.5772 101 76.5597C101.541 74.5424 102.837 73.1367 103.896 73.4201C104.954 73.7036 106.49 74.982 105.949 76.9994Z" fill="#F4F2FF"/>
<path d="M101.968 73.4116C104.15 70.6078 102.877 68.3491 101.968 67.5703C104.176 65.3636 108.904 61.5732 110.151 64.0655C111.71 67.1808 111.32 70.6857 108.592 74.9693C105.865 79.253 99.2405 76.9164 101.968 73.4116Z" fill="#DD9F00"/>
<path d="M71.9441 76.9994C72.485 79.0168 74.8979 81.0093 75.9563 80.7258C77.0148 80.4423 77.4343 78.5772 76.8934 76.5597C76.3525 74.5424 75.0561 73.1367 73.9976 73.4201C72.9391 73.7036 71.4033 74.982 71.9441 76.9994Z" fill="#F4F2FF"/>
<path d="M77.3369 73.1376C75.0967 70.3412 76.4035 68.0885 77.3369 67.3118C75.07 65.1109 70.2162 61.3305 68.9359 63.8162C67.3357 66.9234 67.7359 70.4189 70.5362 74.6912C73.3365 78.9635 80.1372 76.6332 77.3369 73.1376Z" fill="#EBD791"/>
</mask>
<g mask="url(#mask1_4044_841)">
<path d="M98.135 79.0359C93.0488 83.7666 85.1699 83.7666 80.0837 79.0359L68.5472 68.3058C59.7381 60.1125 65.5391 45.373 77.5728 45.373H100.646C112.68 45.373 118.481 60.1125 109.672 68.3058L98.135 79.0359Z" fill="#403366"/>
<path d="M102.358 75.0391L99.631 76.527H89.1104V36.8059L90.4951 36.8982C93.4418 37.0945 96.3246 37.8471 98.9909 39.116L100.346 39.761C102.139 40.6143 104.195 40.7402 106.16 40.4556C108.211 40.1587 110.035 39.8804 112.879 37.1954C115.217 34.9887 116.152 31.2039 116.386 27.4598C116.776 21.2289 112.452 9.24307 128.076 27.4598C132.752 32.9117 126.128 42.2578 133.531 43.4261C140.934 44.5944 145.221 26.6809 145.61 43.4261C145.846 53.534 141.807 58.2174 138.247 60.0191C137.071 60.6148 136.254 59.2557 136.414 57.9472C136.672 55.8575 135.017 54.2059 128.076 55.8876C115.217 59.003 117.945 72.6328 112.879 71.854C108.827 71.2309 103.657 73.741 102.358 75.0391Z" fill="#403366"/>
<path d="M75.4822 74.6497L78.9891 76.527H89.5098V36.8059L88.125 36.8982C85.1783 37.0945 82.2956 37.8471 79.6292 39.116L78.2739 39.761C76.4808 40.6143 74.4257 40.7402 72.4602 40.4556C70.4096 40.1587 68.5855 39.8804 65.7409 37.1954C63.4029 34.9887 62.4681 31.2039 62.234 27.4598C61.8443 21.2289 66.1682 9.24307 50.5443 27.4598C45.8685 32.9117 52.4926 42.2578 45.0891 43.4261C37.6857 44.5944 33.3995 26.6809 33.0098 43.4261C32.7746 53.534 36.8135 58.2174 40.3728 60.0191C41.5496 60.6148 42.3662 59.2557 42.2054 57.9472C41.9488 55.8575 43.6032 54.2059 50.5443 55.8876C63.4029 59.003 60.6753 72.6328 65.7409 71.854C69.7933 71.2309 74.1834 73.3516 75.4822 74.6497Z" fill="#403366"/>
</g>
<mask id="mask2_4044_841" style="mask-type:alpha" maskUnits="userSpaceOnUse" x="33" y="14" width="113" height="60">
<path d="M103.917 71.8541L99.631 73.4118H89.1104V33.6907L90.4951 33.7829C93.4418 33.9793 96.3246 34.7318 98.9909 36.0008L100.346 36.6458C102.139 37.4991 104.195 37.6249 106.16 37.3403C108.211 37.0434 110.035 36.7652 112.879 34.0802C115.217 31.8735 116.152 28.0886 116.386 24.3446C116.776 18.1137 112.452 6.12784 128.076 24.3446C132.752 29.7964 126.128 39.1426 133.531 40.3109C140.934 41.4791 145.221 23.5657 145.61 40.3109C145.846 50.4187 141.807 55.1021 138.247 56.9039C137.071 57.4996 136.254 56.1405 136.414 54.832C136.672 52.7422 135.017 51.0907 128.076 52.7724C115.217 55.8878 117.945 69.5176 112.879 68.7387C108.827 68.1157 105.216 70.556 103.917 71.8541Z" fill="#EBD791"/>
<path d="M74.7029 71.8541L78.9891 73.4118H89.5098V33.6907L88.1251 33.7829C85.1783 33.9793 82.2956 34.7318 79.6292 36.0008L78.2739 36.6458C76.4808 37.4991 74.4256 37.6249 72.4601 37.3403C70.4095 37.0434 68.5855 36.7652 65.7408 34.0802C63.4029 31.8735 62.4681 28.0886 62.2339 24.3446C61.8443 18.1137 66.1681 6.12784 50.5443 24.3446C45.8684 29.7964 52.4926 39.1426 45.0891 40.3109C37.6857 41.4791 33.3995 23.5657 33.0098 40.3109C32.7746 50.4187 36.8135 55.1021 40.3728 56.9039C41.5496 57.4996 42.3661 56.1405 42.2054 54.832C41.9487 52.7422 43.6031 51.0907 50.5443 52.7724C63.4029 55.8878 60.6753 69.5176 65.7408 68.7387C69.7933 68.1157 73.404 70.556 74.7029 71.8541Z" fill="#EBD791"/>
</mask>
<g mask="url(#mask2_4044_841)">
<path d="M119.503 48.9479C121.062 57.1258 115.347 67.3806 114.827 69.9767L129.634 65.3037L137.817 57.1258C146.779 45.4431 142.882 35.7075 140.934 38.8229C131.791 53.4428 118.262 42.4334 119.503 48.9479Z" fill="#403366"/>
<path d="M59.3068 48.9479C57.7482 57.1258 63.4632 67.3806 63.9827 69.9767L49.1758 65.3037L40.993 57.1258C32.031 45.4431 35.9275 35.7075 37.8758 38.8229C47.0187 53.4428 60.5484 42.4334 59.3068 48.9479Z" fill="#403366"/>
</g>
<path d="M93.007 59.1698C93.007 61.1976 91.2624 64.0654 89.1104 64.0654C86.9584 64.0654 85.2139 61.1976 85.2139 59.1698C85.2139 57.142 86.9584 55.498 89.1104 55.498C91.2624 55.498 93.007 57.142 93.007 59.1698Z" fill="#0BC6E3"/>
<path d="M91.4483 69.3614C91.4483 70.5658 90.4016 72.6326 89.1104 72.6326C87.8192 72.6326 86.7725 70.5658 86.7725 69.3614C86.7725 68.1571 87.8192 67.1807 89.1104 67.1807C90.4016 67.1807 91.4483 68.1571 91.4483 69.3614Z" fill="#0BC6E3"/>
<path d="M73.8764 60.5642C75.7961 62.6404 79.9427 63.5079 81.0319 62.5019C82.1212 61.4958 81.4479 58.9972 79.5282 56.921C77.6083 54.8449 75.169 53.9775 74.0798 54.9835C72.9904 55.9895 71.9565 58.4882 73.8764 60.5642Z" fill="#0BC6E3"/>
<path d="M76.6816 69.1924C78.0113 70.6303 80.8831 71.2311 81.6375 70.5344C82.3919 69.8376 81.9255 68.1071 80.596 66.6693C79.2664 65.2314 77.5769 64.6306 76.8225 65.3273C76.0681 66.0241 75.3521 67.7545 76.6816 69.1924Z" fill="#0BC6E3"/>
<path d="M104.473 60.5642C102.553 62.6404 98.4064 63.5079 97.3171 62.5019C96.2279 61.4958 96.9012 58.9972 98.821 56.921C100.741 54.8449 103.18 53.9775 104.269 54.9835C105.359 55.9895 106.393 58.4882 104.473 60.5642Z" fill="#0BC6E3"/>
<path d="M101.666 69.1924C100.337 70.6303 97.465 71.2311 96.7106 70.5344C95.9562 69.8376 96.4225 68.1071 97.7521 66.6693C99.0817 65.2314 100.771 64.6306 101.526 65.3273C102.28 66.0241 102.996 67.7545 101.666 69.1924Z" fill="#0BC6E3"/>
</g>
<g filter="url(#filter0_d_4044_841)">
<mask id="path-90-outside-1_4044_841" maskUnits="userSpaceOnUse" x="19" y="19" width="46" height="75" fill="black">
<rect fill="white" x="19" y="19" width="46" height="75"/>
<path d="M25.8122 49.96H37.3562C44.0122 49.96 45.8842 48.088 45.8842 43.512V39.248C45.8842 34.88 44.0122 33.944 37.4602 33.944C32.8842 33.944 28.3082 34.464 23.1082 35.4L21.5482 23.648C27.4762 22.4 32.6762 21.776 38.8122 21.776C56.1802 21.776 60.8602 26.976 60.8602 37.376V42.264C60.8602 48.4 58.7802 53.08 53.8922 56.096C59.7162 58.696 62.1082 62.336 62.1082 68.888V74.192C62.1082 84.384 57.3242 91.04 38.3962 91.04C32.0522 91.04 26.7482 90.52 21.3402 88.752L22.9002 77.208C27.9962 78.144 31.8442 78.56 37.8762 78.56C45.1562 78.56 47.1322 77.104 47.1322 73.048V68.264C47.1322 64.416 44.7402 62.752 39.5402 62.752H25.8122V49.96Z"/>
</mask>
<path d="M25.8122 49.96H37.3562C44.0122 49.96 45.8842 48.088 45.8842 43.512V39.248C45.8842 34.88 44.0122 33.944 37.4602 33.944C32.8842 33.944 28.3082 34.464 23.1082 35.4L21.5482 23.648C27.4762 22.4 32.6762 21.776 38.8122 21.776C56.1802 21.776 60.8602 26.976 60.8602 37.376V42.264C60.8602 48.4 58.7802 53.08 53.8922 56.096C59.7162 58.696 62.1082 62.336 62.1082 68.888V74.192C62.1082 84.384 57.3242 91.04 38.3962 91.04C32.0522 91.04 26.7482 90.52 21.3402 88.752L22.9002 77.208C27.9962 78.144 31.8442 78.56 37.8762 78.56C45.1562 78.56 47.1322 77.104 47.1322 73.048V68.264C47.1322 64.416 44.7402 62.752 39.5402 62.752H25.8122V49.96Z" fill="#0BC6E3"/>
<path d="M25.8122 49.96V47.96H23.8122V49.96H25.8122ZM23.1082 35.4L21.1255 35.6632L21.4012 37.7394L23.4625 37.3684L23.1082 35.4ZM21.5482 23.648L21.1361 21.6909L19.3215 22.0729L19.5655 23.9112L21.5482 23.648ZM53.8922 56.096L52.8419 54.3939L49.6227 56.3803L53.0769 57.9223L53.8922 56.096ZM21.3402 88.752L19.3582 88.4842L19.135 90.1353L20.7187 90.653L21.3402 88.752ZM22.9002 77.208L23.2615 75.2409L21.199 74.8621L20.9182 76.9402L22.9002 77.208ZM25.8122 62.752H23.8122V64.752H25.8122V62.752ZM25.8122 51.96H37.3562V47.96H25.8122V51.96ZM37.3562 51.96C40.747 51.96 43.4939 51.5111 45.3655 50.0137C47.3805 48.4018 47.8842 46.0122 47.8842 43.512H43.8842C43.8842 45.5878 43.4518 46.4222 42.8668 46.8903C42.1385 47.4729 40.6214 47.96 37.3562 47.96V51.96ZM47.8842 43.512V39.248H43.8842V43.512H47.8842ZM47.8842 39.248C47.8842 36.83 47.3629 34.5792 45.1658 33.2476C44.1968 32.6603 43.0492 32.3529 41.8221 32.1784C40.5858 32.0026 39.1301 31.944 37.4602 31.944V35.944C39.0662 35.944 40.3015 36.0024 41.2589 36.1386C42.2256 36.2761 42.7745 36.4756 43.0926 36.6684C43.4694 36.8968 43.8842 37.298 43.8842 39.248H47.8842ZM37.4602 31.944C32.7286 31.944 28.028 32.4823 22.7539 33.4316L23.4625 37.3684C28.5883 36.4457 33.0397 35.944 37.4602 35.944V31.944ZM25.0908 35.1368L23.5308 23.3848L19.5655 23.9112L21.1255 35.6632L25.0908 35.1368ZM21.9602 25.6051C27.7714 24.3817 32.8325 23.776 38.8122 23.776V19.776C32.5198 19.776 27.1809 20.4183 21.1361 21.6909L21.9602 25.6051ZM38.8122 23.776C47.4058 23.776 52.3342 25.0858 55.1209 27.2544C57.7549 29.3042 58.8602 32.4466 58.8602 37.376H62.8602C62.8602 31.9053 61.6254 27.2478 57.5775 24.0976C53.6821 21.0662 47.5865 19.776 38.8122 19.776V23.776ZM58.8602 37.376V42.264H62.8602V37.376H58.8602ZM58.8602 42.264C58.8602 47.8803 57.0053 51.8251 52.8419 54.3939L54.9424 57.7981C60.555 54.3349 62.8602 48.9197 62.8602 42.264H58.8602ZM53.0769 57.9223C55.7693 59.1243 57.456 60.4715 58.5039 62.0947C59.5531 63.72 60.1082 65.8484 60.1082 68.888H64.1082C64.1082 65.3756 63.4672 62.408 61.8644 59.9253C60.2603 57.4405 57.839 55.6677 54.7075 54.2697L53.0769 57.9223ZM60.1082 68.888V74.192H64.1082V68.888H60.1082ZM60.1082 74.192C60.1082 78.9932 58.9878 82.4947 56.0776 84.8951C53.0587 87.3851 47.7114 89.04 38.3962 89.04V93.04C48.0089 93.04 54.5176 91.3669 58.6228 87.9809C62.8365 84.5053 64.1082 79.5828 64.1082 74.192H60.1082ZM38.3962 89.04C32.1647 89.04 27.093 88.5286 21.9616 86.851L20.7187 90.653C26.4033 92.5114 31.9396 93.04 38.3962 93.04V89.04ZM23.3221 89.0198L24.8821 77.4758L20.9182 76.9402L19.3582 88.4842L23.3221 89.0198ZM22.5389 79.1751C27.7465 80.1316 31.7155 80.56 37.8762 80.56V76.56C31.9728 76.56 28.2458 76.1564 23.2615 75.2409L22.5389 79.1751ZM37.8762 80.56C41.511 80.56 44.3538 80.2247 46.2885 79.0245C48.532 77.6327 49.1322 75.4085 49.1322 73.048H45.1322C45.1322 74.7435 44.7443 75.2753 44.1798 75.6255C43.3065 76.1673 41.5214 76.56 37.8762 76.56V80.56ZM49.1322 73.048V68.264H45.1322V73.048H49.1322ZM49.1322 68.264C49.1322 65.889 48.3633 63.8137 46.4534 62.441C44.6908 61.1741 42.275 60.752 39.5402 60.752V64.752C42.0053 64.752 43.3855 65.1619 44.1189 65.689C44.7051 66.1103 45.1322 66.791 45.1322 68.264H49.1322ZM39.5402 60.752H25.8122V64.752H39.5402V60.752ZM27.8122 62.752V49.96H23.8122V62.752H27.8122Z" fill="#403366" mask="url(#path-90-outside-1_4044_841)"/>
</g>
<defs>
<filter id="filter0_d_4044_841" x="17.3398" y="21.7764" width="48.7686" height="77.2637" filterUnits="userSpaceOnUse" color-interpolation-filters="sRGB">
<feFlood flood-opacity="0" result="BackgroundImageFix"/>
<feColorMatrix in="SourceAlpha" type="matrix" values="0 0 0 0 0 0 0 0 0 0 0 0 0 0 0 0 0 0 127 0" result="hardAlpha"/>
<feOffset dy="4"/>
<feGaussianBlur stdDeviation="2"/>
<feComposite in2="hardAlpha" operator="out"/>
<feColorMatrix type="matrix" values="0 0 0 0 0 0 0 0 0 0 0 0 0 0 0 0 0 0 0.25 0"/>
<feBlend mode="normal" in2="BackgroundImageFix" result="effect1_dropShadow_4044_841"/>
<feBlend mode="normal" in="SourceGraphic" in2="effect1_dropShadow_4044_841" result="shape"/>
</filter>
<clipPath id="clip0_4044_841">
<rect width="113" height="81" fill="white" transform="translate(33 14)"/>
</clipPath>
</defs>
</svg>
