<svg width="144" height="109" viewBox="0 0 144 109" fill="none" xmlns="http://www.w3.org/2000/svg">
<path d="M95.9995 79.3595C108.202 79.3595 118.095 69.4011 118.095 57.1167C118.095 44.8324 108.202 34.874 95.9995 34.874C83.7967 34.874 73.9043 44.8324 73.9043 57.1167C73.9043 69.4011 83.7967 79.3595 95.9995 79.3595Z" fill="#6C5C99"/>
<path fill-rule="evenodd" clip-rule="evenodd" d="M103.771 21.8349C103.771 19.717 102.066 18 99.9616 18H92.0378C89.9339 18 88.2283 19.717 88.2283 21.835V26.8091C85.3759 27.5481 82.6821 28.6845 80.2083 30.156L76.7126 26.6369C75.2249 25.1392 72.8128 25.1392 71.3251 26.6369L65.7221 32.2773C64.2344 33.7749 64.2344 36.2031 65.7221 37.7007L69.2179 41.2199C67.7562 43.7101 66.6275 46.422 65.8933 49.2933H60.9521C58.8482 49.2933 57.1426 51.0103 57.1426 53.1282V61.1049C57.1426 63.2229 58.8482 64.9399 60.9521 64.9399H65.8934C66.6275 67.8111 67.7563 70.5229 69.2179 73.0132L65.7221 76.5323C64.2344 78.03 64.2344 80.4581 65.7221 81.9557L71.3251 87.5962C72.8127 89.0938 75.2249 89.0938 76.7126 87.5962L80.2084 84.0769C82.6822 85.5485 85.376 86.6848 88.2283 87.4238V92.3981C88.2283 94.5164 89.9339 96.2329 92.0378 96.2329H99.9616C102.066 96.2329 103.771 94.5164 103.771 92.3981V87.4238C106.623 86.6848 109.317 85.5485 111.791 84.077L115.287 87.5964C116.775 89.094 119.187 89.094 120.674 87.5964L126.277 81.956C127.765 80.4583 127.765 78.0302 126.277 76.5326L122.781 73.0132C124.243 70.523 125.372 67.8112 126.106 64.9399H131.047C133.151 64.9399 134.857 63.2229 134.857 61.1049V53.1282C134.857 51.0103 133.151 49.2933 131.047 49.2933H126.106C125.372 46.4219 124.244 43.7101 122.781 41.2197L126.277 37.7005C127.765 36.2028 127.765 33.7747 126.277 32.2771L120.674 26.6367C119.187 25.139 116.775 25.139 115.287 26.6367L111.791 30.1559C109.317 28.6844 106.623 27.5481 103.771 26.8091V21.8349ZM95.9997 83.1942C110.307 83.1942 121.904 71.5188 121.904 57.1165C121.904 42.7142 110.307 31.0388 95.9997 31.0388C81.6929 31.0388 70.095 42.7142 70.095 57.1165C70.095 71.5188 81.6929 83.1942 95.9997 83.1942Z" fill="#6C5C99"/>
<path d="M140.19 41.0098H51.8095C49.7056 41.0098 48 42.7267 48 44.8447V70.1554C48 72.2734 49.7056 73.9904 51.8095 73.9904H140.19C142.294 73.9904 144 72.2734 144 70.1554V44.8447C144 42.7267 142.294 41.0098 140.19 41.0098Z" fill="#8976C0"/>
<path d="M137.905 47.9121H54.0957V67.8539H137.905V47.9121Z" fill="#6C5C99" stroke="#6C5C99" stroke-width="4"/>
<path d="M135.619 50.2139H120.381V65.5537H135.619V50.2139Z" fill="#403366"/>
<path d="M87.619 50.2139H72.3809V65.5537H87.619V50.2139Z" fill="#0BC6E3"/>
<path d="M103.619 50.2139H88.3809V65.5537H103.619V50.2139Z" fill="#0BC6E3"/>
<path d="M119.619 50.2139H104.381V65.5537H119.619V50.2139Z" fill="#403366"/>
<path d="M71.619 50.2139H56.3809V65.5537H71.619V50.2139Z" fill="#0BC6E3"/>
<path d="M134.773 68.8263L110.875 58.989C109.877 58.578 108.88 59.5813 109.288 60.5864L119.064 84.653C119.433 85.5629 120.663 85.686 121.204 84.8673L124.766 79.4679C125.192 78.8223 126.1 78.7322 126.642 79.2814L137.995 90.7614C138.469 91.2416 139.241 91.2425 139.717 90.7633L140.793 89.6803C141.269 89.2019 141.269 88.4263 140.793 87.948L129.384 76.4627C128.84 75.9143 128.931 75.0009 129.574 74.5739L134.983 70.9827C135.8 70.4405 135.679 69.199 134.773 68.8263Z" fill="#F4F2FF"/>
<path d="M101.994 49.881C101.728 49.5528 101.248 49.504 100.922 49.7718C100.596 50.0397 100.548 50.5229 100.814 50.851L105.097 56.133C105.363 56.4612 105.843 56.5101 106.169 56.2422C106.495 55.9743 106.543 55.4912 106.277 55.163L101.994 49.881Z" fill="#F4F2FF"/>
<path d="M95.5696 60.1032C95.1553 60.0287 94.7596 60.3065 94.6856 60.7235C94.6117 61.1405 94.8876 61.5389 95.3018 61.6133L101.302 62.6915C101.716 62.7659 102.112 62.4882 102.186 62.0712C102.26 61.6542 101.984 61.2558 101.57 61.1813L95.5696 60.1032Z" fill="#F4F2FF"/>
<path d="M111.851 46.1063C111.862 45.6829 112.211 45.3482 112.632 45.3588C113.053 45.3693 113.385 45.7212 113.375 46.1447L113.222 52.2787C113.212 52.7021 112.862 53.0368 112.441 53.0263C112.021 53.0157 111.688 52.6638 111.699 52.2403L111.851 46.1063Z" fill="#F4F2FF"/>
<g filter="url(#filter0_d_4044_820)">
<mask id="path-14-outside-1_4044_820" maskUnits="userSpaceOnUse" x="17" y="19" width="48" height="73" fill="black">
<rect fill="white" x="17" y="19" width="48" height="73"/>
<path d="M52.7677 64C47.7757 70.032 44.6557 73.672 41.6397 76.896H62.9597V90H20.9437V77.208C28.4317 69.512 29.7837 68.264 36.0237 61.192C46.2157 49.544 47.3597 48.92 47.3597 41.848V39.976C47.3597 36.336 44.9677 35.088 39.1437 35.088C34.1517 35.088 26.4557 35.92 21.9837 37.064L20.0077 24.48C26.4557 22.816 33.8397 21.776 39.8717 21.776C55.8877 21.776 62.3357 26.768 62.3357 38.104C62.3357 38.208 62.3357 40.704 62.3357 40.808C62.3357 50.688 62.2317 52.56 52.7677 64Z"/>
</mask>
<path d="M52.7677 64C47.7757 70.032 44.6557 73.672 41.6397 76.896H62.9597V90H20.9437V77.208C28.4317 69.512 29.7837 68.264 36.0237 61.192C46.2157 49.544 47.3597 48.92 47.3597 41.848V39.976C47.3597 36.336 44.9677 35.088 39.1437 35.088C34.1517 35.088 26.4557 35.92 21.9837 37.064L20.0077 24.48C26.4557 22.816 33.8397 21.776 39.8717 21.776C55.8877 21.776 62.3357 26.768 62.3357 38.104C62.3357 38.208 62.3357 40.704 62.3357 40.808C62.3357 50.688 62.2317 52.56 52.7677 64Z" fill="#0BC6E3"/>
<path d="M52.7677 64L54.3084 65.2751L54.3087 65.2748L52.7677 64ZM41.6397 76.896L40.1791 75.5297L37.03 78.896H41.6397V76.896ZM62.9597 76.896H64.9597V74.896H62.9597V76.896ZM62.9597 90V92H64.9597V90H62.9597ZM20.9437 90H18.9437V92H20.9437V90ZM20.9437 77.208L19.5102 75.8133L18.9437 76.3956V77.208H20.9437ZM36.0237 61.192L37.5233 62.5153L37.5288 62.509L36.0237 61.192ZM21.9837 37.064L20.0079 37.3742L20.349 39.5466L22.4793 39.0016L21.9837 37.064ZM20.0077 24.48L19.5079 22.5434L17.7503 22.997L18.0319 24.7902L20.0077 24.48ZM51.2269 62.7249C46.2397 68.751 43.1516 72.3522 40.1791 75.5297L43.1002 78.2623C46.1597 74.9918 49.3116 71.313 54.3084 65.2751L51.2269 62.7249ZM41.6397 78.896H62.9597V74.896H41.6397V78.896ZM60.9597 76.896V90H64.9597V76.896H60.9597ZM62.9597 88H20.9437V92H62.9597V88ZM22.9437 90V77.208H18.9437V90H22.9437ZM22.3771 78.6027C29.8561 70.916 31.2447 69.631 37.5233 62.5152L34.524 59.8688C28.3226 66.897 27.0073 68.108 19.5102 75.8133L22.3771 78.6027ZM37.5288 62.509C42.5272 56.7965 45.5377 53.5392 47.2097 50.864C49.055 47.9115 49.3597 45.5522 49.3597 41.848H45.3597C45.3597 45.2158 45.0923 46.7045 43.8177 48.744C42.3697 51.0608 39.7121 53.9395 34.5185 59.875L37.5288 62.509ZM49.3597 41.848V39.976H45.3597V41.848H49.3597ZM49.3597 39.976C49.3597 38.8554 49.1765 37.7652 48.6828 36.7803C48.1767 35.7707 47.4062 34.9963 46.4371 34.4358C44.617 33.383 42.0913 33.088 39.1437 33.088V37.088C42.02 37.088 43.6023 37.417 44.4343 37.8982C44.7911 38.1047 44.9826 38.3248 45.107 38.5729C45.2438 38.8458 45.3597 39.2766 45.3597 39.976H49.3597ZM39.1437 33.088C34.0204 33.088 26.1534 33.9329 21.488 35.1264L22.4793 39.0016C26.7579 37.9071 34.2829 37.088 39.1437 37.088V33.088ZM23.9594 36.7537L21.9834 24.1697L18.0319 24.7902L20.0079 37.3742L23.9594 36.7537ZM20.5074 26.4165C26.82 24.7875 34.0347 23.776 39.8717 23.776V19.776C33.6446 19.776 26.0913 20.8445 19.5079 22.5434L20.5074 26.4165ZM39.8717 23.776C47.7594 23.776 52.8368 25.0231 55.9227 27.2987C58.8591 29.464 60.3357 32.8316 60.3357 38.104H64.3357C64.3357 32.0404 62.5882 27.2439 58.2966 24.0793C54.1545 21.0249 47.9999 19.776 39.8717 19.776V23.776ZM60.3357 38.104C60.3357 38.1042 60.3357 38.1044 60.3357 38.1046C60.3357 38.1049 60.3357 38.1051 60.3357 38.1053C60.3357 38.1056 60.3357 38.1058 60.3357 38.1061C60.3357 38.1063 60.3357 38.1066 60.3357 38.1069C60.3357 38.1071 60.3357 38.1074 60.3357 38.1077C60.3357 38.108 60.3357 38.1083 60.3357 38.1086C60.3357 38.1089 60.3357 38.1093 60.3357 38.1096C60.3357 38.1099 60.3357 38.1103 60.3357 38.1106C60.3357 38.111 60.3357 38.1113 60.3357 38.1117C60.3357 38.112 60.3357 38.1124 60.3357 38.1128C60.3357 38.1132 60.3357 38.1136 60.3357 38.114C60.3357 38.1144 60.3357 38.1148 60.3357 38.1152C60.3357 38.1156 60.3357 38.116 60.3357 38.1165C60.3357 38.1169 60.3357 38.1173 60.3357 38.1178C60.3357 38.1182 60.3357 38.1187 60.3357 38.1192C60.3357 38.1196 60.3357 38.1201 60.3357 38.1206C60.3357 38.1211 60.3357 38.1216 60.3357 38.1221C60.3357 38.1226 60.3357 38.1231 60.3357 38.1236C60.3357 38.1241 60.3357 38.1247 60.3357 38.1252C60.3357 38.1258 60.3357 38.1263 60.3357 38.1269C60.3357 38.1274 60.3357 38.128 60.3357 38.1285C60.3357 38.1291 60.3357 38.1297 60.3357 38.1303C60.3357 38.1309 60.3357 38.1315 60.3357 38.1321C60.3357 38.1327 60.3357 38.1333 60.3357 38.1339C60.3357 38.1345 60.3357 38.1351 60.3357 38.1358C60.3357 38.1364 60.3357 38.1371 60.3357 38.1377C60.3357 38.1384 60.3357 38.139 60.3357 38.1397C60.3357 38.1404 60.3357 38.1411 60.3357 38.1417C60.3357 38.1424 60.3357 38.1431 60.3357 38.1438C60.3357 38.1445 60.3357 38.1452 60.3357 38.146C60.3357 38.1467 60.3357 38.1474 60.3357 38.1481C60.3357 38.1489 60.3357 38.1496 60.3357 38.1504C60.3357 38.1511 60.3357 38.1519 60.3357 38.1526C60.3357 38.1534 60.3357 38.1542 60.3357 38.155C60.3357 38.1557 60.3357 38.1565 60.3357 38.1573C60.3357 38.1581 60.3357 38.1589 60.3357 38.1597C60.3357 38.1606 60.3357 38.1614 60.3357 38.1622C60.3357 38.163 60.3357 38.1639 60.3357 38.1647C60.3357 38.1656 60.3357 38.1664 60.3357 38.1673C60.3357 38.1681 60.3357 38.169 60.3357 38.1699C60.3357 38.1708 60.3357 38.1716 60.3357 38.1725C60.3357 38.1734 60.3357 38.1743 60.3357 38.1752C60.3357 38.1761 60.3357 38.1771 60.3357 38.178C60.3357 38.1789 60.3357 38.1798 60.3357 38.1808C60.3357 38.1817 60.3357 38.1827 60.3357 38.1836C60.3357 38.1846 60.3357 38.1855 60.3357 38.1865C60.3357 38.1875 60.3357 38.1884 60.3357 38.1894C60.3357 38.1904 60.3357 38.1914 60.3357 38.1924C60.3357 38.1934 60.3357 38.1944 60.3357 38.1954C60.3357 38.1964 60.3357 38.1974 60.3357 38.1984C60.3357 38.1995 60.3357 38.2005 60.3357 38.2015C60.3357 38.2026 60.3357 38.2036 60.3357 38.2047C60.3357 38.2057 60.3357 38.2068 60.3357 38.2079C60.3357 38.209 60.3357 38.21 60.3357 38.2111C60.3357 38.2122 60.3357 38.2133 60.3357 38.2144C60.3357 38.2155 60.3357 38.2166 60.3357 38.2177C60.3357 38.2188 60.3357 38.2199 60.3357 38.2211C60.3357 38.2222 60.3357 38.2233 60.3357 38.2245C60.3357 38.2256 60.3357 38.2268 60.3357 38.2279C60.3357 38.2291 60.3357 38.2302 60.3357 38.2314C60.3357 38.2326 60.3357 38.2338 60.3357 38.2349C60.3357 38.2361 60.3357 38.2373 60.3357 38.2385C60.3357 38.2397 60.3357 38.2409 60.3357 38.2421C60.3357 38.2433 60.3357 38.2446 60.3357 38.2458C60.3357 38.247 60.3357 38.2482 60.3357 38.2495C60.3357 38.2507 60.3357 38.252 60.3357 38.2532C60.3357 38.2545 60.3357 38.2557 60.3357 38.257C60.3357 38.2583 60.3357 38.2595 60.3357 38.2608C60.3357 38.2621 60.3357 38.2634 60.3357 38.2647C60.3357 38.266 60.3357 38.2673 60.3357 38.2686C60.3357 38.2699 60.3357 38.2712 60.3357 38.2725C60.3357 38.2738 60.3357 38.2751 60.3357 38.2765C60.3357 38.2778 60.3357 38.2791 60.3357 38.2805C60.3357 38.2818 60.3357 38.2832 60.3357 38.2845C60.3357 38.2859 60.3357 38.2873 60.3357 38.2886C60.3357 38.29 60.3357 38.2914 60.3357 38.2928C60.3357 38.2942 60.3357 38.2956 60.3357 38.297C60.3357 38.2983 60.3357 38.2998 60.3357 38.3012C60.3357 38.3026 60.3357 38.304 60.3357 38.3054C60.3357 38.3068 60.3357 38.3083 60.3357 38.3097C60.3357 38.3111 60.3357 38.3126 60.3357 38.314C60.3357 38.3155 60.3357 38.3169 60.3357 38.3184C60.3357 38.3198 60.3357 38.3213 60.3357 38.3228C60.3357 38.3242 60.3357 38.3257 60.3357 38.3272C60.3357 38.3287 60.3357 38.3302 60.3357 38.3317C60.3357 38.3332 60.3357 38.3347 60.3357 38.3362C60.3357 38.3377 60.3357 38.3392 60.3357 38.3407C60.3357 38.3423 60.3357 38.3438 60.3357 38.3453C60.3357 38.3469 60.3357 38.3484 60.3357 38.3499C60.3357 38.3515 60.3357 38.353 60.3357 38.3546C60.3357 38.3561 60.3357 38.3577 60.3357 38.3593C60.3357 38.3608 60.3357 38.3624 60.3357 38.364C60.3357 38.3656 60.3357 38.3672 60.3357 38.3688C60.3357 38.3703 60.3357 38.3719 60.3357 38.3736C60.3357 38.3752 60.3357 38.3768 60.3357 38.3784C60.3357 38.38 60.3357 38.3816 60.3357 38.3832C60.3357 38.3849 60.3357 38.3865 60.3357 38.3881C60.3357 38.3898 60.3357 38.3914 60.3357 38.3931C60.3357 38.3947 60.3357 38.3964 60.3357 38.398C60.3357 38.3997 60.3357 38.4014 60.3357 38.403C60.3357 38.4047 60.3357 38.4064 60.3357 38.4081C60.3357 38.4097 60.3357 38.4114 60.3357 38.4131C60.3357 38.4148 60.3357 38.4165 60.3357 38.4182C60.3357 38.4199 60.3357 38.4216 60.3357 38.4234C60.3357 38.4251 60.3357 38.4268 60.3357 38.4285C60.3357 38.4302 60.3357 38.432 60.3357 38.4337C60.3357 38.4355 60.3357 38.4372 60.3357 38.4389C60.3357 38.4407 60.3357 38.4424 60.3357 38.4442C60.3357 38.446 60.3357 38.4477 60.3357 38.4495C60.3357 38.4513 60.3357 38.453 60.3357 38.4548C60.3357 38.4566 60.3357 38.4584 60.3357 38.4602C60.3357 38.462 60.3357 38.4638 60.3357 38.4656C60.3357 38.4674 60.3357 38.4692 60.3357 38.471C60.3357 38.4728 60.3357 38.4746 60.3357 38.4764C60.3357 38.4782 60.3357 38.4801 60.3357 38.4819C60.3357 38.4837 60.3357 38.4856 60.3357 38.4874C60.3357 38.4892 60.3357 38.4911 60.3357 38.4929C60.3357 38.4948 60.3357 38.4966 60.3357 38.4985C60.3357 38.5004 60.3357 38.5022 60.3357 38.5041C60.3357 38.506 60.3357 38.5078 60.3357 38.5097C60.3357 38.5116 60.3357 38.5135 60.3357 38.5154C60.3357 38.5173 60.3357 38.5192 60.3357 38.5211C60.3357 38.523 60.3357 38.5249 60.3357 38.5268C60.3357 38.5287 60.3357 38.5306 60.3357 38.5325C60.3357 38.5344 60.3357 38.5364 60.3357 38.5383C60.3357 38.5402 60.3357 38.5421 60.3357 38.5441C60.3357 38.546 60.3357 38.548 60.3357 38.5499C60.3357 38.5518 60.3357 38.5538 60.3357 38.5557C60.3357 38.5577 60.3357 38.5597 60.3357 38.5616C60.3357 38.5636 60.3357 38.5656 60.3357 38.5675C60.3357 38.5695 60.3357 38.5715 60.3357 38.5735C60.3357 38.5754 60.3357 38.5774 60.3357 38.5794C60.3357 38.5814 60.3357 38.5834 60.3357 38.5854C60.3357 38.5874 60.3357 38.5894 60.3357 38.5914C60.3357 38.5934 60.3357 38.5954 60.3357 38.5975C60.3357 38.5995 60.3357 38.6015 60.3357 38.6035C60.3357 38.6056 60.3357 38.6076 60.3357 38.6096C60.3357 38.6117 60.3357 38.6137 60.3357 38.6157C60.3357 38.6178 60.3357 38.6198 60.3357 38.6219C60.3357 38.6239 60.3357 38.626 60.3357 38.628C60.3357 38.6301 60.3357 38.6322 60.3357 38.6342C60.3357 38.6363 60.3357 38.6384 60.3357 38.6404C60.3357 38.6425 60.3357 38.6446 60.3357 38.6467C60.3357 38.6488 60.3357 38.6509 60.3357 38.653C60.3357 38.655 60.3357 38.6571 60.3357 38.6592C60.3357 38.6613 60.3357 38.6634 60.3357 38.6656C60.3357 38.6677 60.3357 38.6698 60.3357 38.6719C60.3357 38.674 60.3357 38.6761 60.3357 38.6782C60.3357 38.6804 60.3357 38.6825 60.3357 38.6846C60.3357 38.6868 60.3357 38.6889 60.3357 38.691C60.3357 38.6932 60.3357 38.6953 60.3357 38.6975C60.3357 38.6996 60.3357 38.7018 60.3357 38.7039C60.3357 38.7061 60.3357 38.7082 60.3357 38.7104C60.3357 38.7125 60.3357 38.7147 60.3357 38.7169C60.3357 38.719 60.3357 38.7212 60.3357 38.7234C60.3357 38.7256 60.3357 38.7277 60.3357 38.7299C60.3357 38.7321 60.3357 38.7343 60.3357 38.7365C60.3357 38.7387 60.3357 38.7409 60.3357 38.7431C60.3357 38.7453 60.3357 38.7475 60.3357 38.7497C60.3357 38.7519 60.3357 38.7541 60.3357 38.7563C60.3357 38.7585 60.3357 38.7607 60.3357 38.7629C60.3357 38.7651 60.3357 38.7674 60.3357 38.7696C60.3357 38.7718 60.3357 38.774 60.3357 38.7763C60.3357 38.7785 60.3357 38.7807 60.3357 38.783C60.3357 38.7852 60.3357 38.7874 60.3357 38.7897C60.3357 38.7919 60.3357 38.7942 60.3357 38.7964C60.3357 38.7987 60.3357 38.8009 60.3357 38.8032C60.3357 38.8055 60.3357 38.8077 60.3357 38.81C60.3357 38.8122 60.3357 38.8145 60.3357 38.8168C60.3357 38.819 60.3357 38.8213 60.3357 38.8236C60.3357 38.8259 60.3357 38.8281 60.3357 38.8304C60.3357 38.8327 60.3357 38.835 60.3357 38.8373C60.3357 38.8396 60.3357 38.8419 60.3357 38.8442C60.3357 38.8464 60.3357 38.8487 60.3357 38.851C60.3357 38.8533 60.3357 38.8556 60.3357 38.8579C60.3357 38.8603 60.3357 38.8626 60.3357 38.8649C60.3357 38.8672 60.3357 38.8695 60.3357 38.8718C60.3357 38.8741 60.3357 38.8764 60.3357 38.8788C60.3357 38.8811 60.3357 38.8834 60.3357 38.8857C60.3357 38.8881 60.3357 38.8904 60.3357 38.8927C60.3357 38.8951 60.3357 38.8974 60.3357 38.8997C60.3357 38.9021 60.3357 38.9044 60.3357 38.9068C60.3357 38.9091 60.3357 38.9115 60.3357 38.9138C60.3357 38.9162 60.3357 38.9185 60.3357 38.9209C60.3357 38.9232 60.3357 38.9256 60.3357 38.9279C60.3357 38.9303 60.3357 38.9327 60.3357 38.935C60.3357 38.9374 60.3357 38.9398 60.3357 38.9421C60.3357 38.9445 60.3357 38.9469 60.3357 38.9492C60.3357 38.9516 60.3357 38.954 60.3357 38.9564C60.3357 38.9587 60.3357 38.9611 60.3357 38.9635C60.3357 38.9659 60.3357 38.9683 60.3357 38.9707C60.3357 38.9731 60.3357 38.9754 60.3357 38.9778C60.3357 38.9802 60.3357 38.9826 60.3357 38.985C60.3357 38.9874 60.3357 38.9898 60.3357 38.9922C60.3357 38.9946 60.3357 38.997 60.3357 38.9994C60.3357 39.0018 60.3357 39.0043 60.3357 39.0067C60.3357 39.0091 60.3357 39.0115 60.3357 39.0139C60.3357 39.0163 60.3357 39.0187 60.3357 39.0212C60.3357 39.0236 60.3357 39.026 60.3357 39.0284C60.3357 39.0308 60.3357 39.0333 60.3357 39.0357C60.3357 39.0381 60.3357 39.0406 60.3357 39.043C60.3357 39.0454 60.3357 39.0478 60.3357 39.0503C60.3357 39.0527 60.3357 39.0552 60.3357 39.0576C60.3357 39.06 60.3357 39.0625 60.3357 39.0649C60.3357 39.0674 60.3357 39.0698 60.3357 39.0723C60.3357 39.0747 60.3357 39.0771 60.3357 39.0796C60.3357 39.082 60.3357 39.0845 60.3357 39.0869C60.3357 39.0894 60.3357 39.0919 60.3357 39.0943C60.3357 39.0968 60.3357 39.0992 60.3357 39.1017C60.3357 39.1041 60.3357 39.1066 60.3357 39.1091C60.3357 39.1115 60.3357 39.114 60.3357 39.1165C60.3357 39.1189 60.3357 39.1214 60.3357 39.1239C60.3357 39.1263 60.3357 39.1288 60.3357 39.1313C60.3357 39.1338 60.3357 39.1362 60.3357 39.1387C60.3357 39.1412 60.3357 39.1437 60.3357 39.1461C60.3357 39.1486 60.3357 39.1511 60.3357 39.1536C60.3357 39.1561 60.3357 39.1586 60.3357 39.161C60.3357 39.1635 60.3357 39.166 60.3357 39.1685C60.3357 39.171 60.3357 39.1735 60.3357 39.176C60.3357 39.1785 60.3357 39.181 60.3357 39.1834C60.3357 39.1859 60.3357 39.1884 60.3357 39.1909C60.3357 39.1934 60.3357 39.1959 60.3357 39.1984C60.3357 39.2009 60.3357 39.2034 60.3357 39.2059C60.3357 39.2084 60.3357 39.2109 60.3357 39.2134C60.3357 39.2159 60.3357 39.2184 60.3357 39.2209C60.3357 39.2234 60.3357 39.2259 60.3357 39.2284C60.3357 39.2309 60.3357 39.2335 60.3357 39.236C60.3357 39.2385 60.3357 39.241 60.3357 39.2435C60.3357 39.246 60.3357 39.2485 60.3357 39.251C60.3357 39.2535 60.3357 39.2561 60.3357 39.2586C60.3357 39.2611 60.3357 39.2636 60.3357 39.2661C60.3357 39.2686 60.3357 39.2712 60.3357 39.2737C60.3357 39.2762 60.3357 39.2787 60.3357 39.2812C60.3357 39.2838 60.3357 39.2863 60.3357 39.2888C60.3357 39.2913 60.3357 39.2938 60.3357 39.2964C60.3357 39.2989 60.3357 39.3014 60.3357 39.3039C60.3357 39.3065 60.3357 39.309 60.3357 39.3115C60.3357 39.314 60.3357 39.3166 60.3357 39.3191C60.3357 39.3216 60.3357 39.3242 60.3357 39.3267C60.3357 39.3292 60.3357 39.3317 60.3357 39.3343C60.3357 39.3368 60.3357 39.3393 60.3357 39.3419C60.3357 39.3444 60.3357 39.3469 60.3357 39.3495C60.3357 39.352 60.3357 39.3545 60.3357 39.3571C60.3357 39.3596 60.3357 39.3621 60.3357 39.3647C60.3357 39.3672 60.3357 39.3697 60.3357 39.3723C60.3357 39.3748 60.3357 39.3773 60.3357 39.3799C60.3357 39.3824 60.3357 39.3849 60.3357 39.3875C60.3357 39.39 60.3357 39.3925 60.3357 39.3951C60.3357 39.3976 60.3357 39.4002 60.3357 39.4027C60.3357 39.4052 60.3357 39.4078 60.3357 39.4103C60.3357 39.4128 60.3357 39.4154 60.3357 39.4179C60.3357 39.4205 60.3357 39.423 60.3357 39.4255C60.3357 39.4281 60.3357 39.4306 60.3357 39.4331C60.3357 39.4357 60.3357 39.4382 60.3357 39.4408C60.3357 39.4433 60.3357 39.4458 60.3357 39.4484C60.3357 39.4509 60.3357 39.4535 60.3357 39.456C60.3357 39.4585 60.3357 39.4611 60.3357 39.4636C60.3357 39.4662 60.3357 39.4687 60.3357 39.4712C60.3357 39.4738 60.3357 39.4763 60.3357 39.4788C60.3357 39.4814 60.3357 39.4839 60.3357 39.4865C60.3357 39.489 60.3357 39.4915 60.3357 39.4941C60.3357 39.4966 60.3357 39.4992 60.3357 39.5017C60.3357 39.5042 60.3357 39.5068 60.3357 39.5093C60.3357 39.5118 60.3357 39.5144 60.3357 39.5169C60.3357 39.5195 60.3357 39.522 60.3357 39.5245C60.3357 39.5271 60.3357 39.5296 60.3357 39.5321C60.3357 39.5347 60.3357 39.5372 60.3357 39.5397C60.3357 39.5423 60.3357 39.5448 60.3357 39.5473C60.3357 39.5499 60.3357 39.5524 60.3357 39.5549C60.3357 39.5575 60.3357 39.56 60.3357 39.5625C60.3357 39.5651 60.3357 39.5676 60.3357 39.5701C60.3357 39.5727 60.3357 39.5752 60.3357 39.5777C60.3357 39.5803 60.3357 39.5828 60.3357 39.5853C60.3357 39.5878 60.3357 39.5904 60.3357 39.5929C60.3357 39.5954 60.3357 39.598 60.3357 39.6005C60.3357 39.603 60.3357 39.6055 60.3357 39.6081C60.3357 39.6106 60.3357 39.6131 60.3357 39.6156C60.3357 39.6182 60.3357 39.6207 60.3357 39.6232C60.3357 39.6257 60.3357 39.6282 60.3357 39.6308C60.3357 39.6333 60.3357 39.6358 60.3357 39.6383C60.3357 39.6408 60.3357 39.6434 60.3357 39.6459C60.3357 39.6484 60.3357 39.6509 60.3357 39.6534C60.3357 39.6559 60.3357 39.6584 60.3357 39.661C60.3357 39.6635 60.3357 39.666 60.3357 39.6685C60.3357 39.671 60.3357 39.6735 60.3357 39.676C60.3357 39.6785 60.3357 39.681 60.3357 39.6836C60.3357 39.6861 60.3357 39.6886 60.3357 39.6911C60.3357 39.6936 60.3357 39.6961 60.3357 39.6986C60.3357 39.7011 60.3357 39.7036 60.3357 39.7061C60.3357 39.7086 60.3357 39.7111 60.3357 39.7136C60.3357 39.7161 60.3357 39.7186 60.3357 39.7211C60.3357 39.7236 60.3357 39.7261 60.3357 39.7286C60.3357 39.731 60.3357 39.7335 60.3357 39.736C60.3357 39.7385 60.3357 39.741 60.3357 39.7435C60.3357 39.746 60.3357 39.7485 60.3357 39.751C60.3357 39.7534 60.3357 39.7559 60.3357 39.7584C60.3357 39.7609 60.3357 39.7634 60.3357 39.7658C60.3357 39.7683 60.3357 39.7708 60.3357 39.7733C60.3357 39.7758 60.3357 39.7782 60.3357 39.7807C60.3357 39.7832 60.3357 39.7856 60.3357 39.7881C60.3357 39.7906 60.3357 39.7931 60.3357 39.7955C60.3357 39.798 60.3357 39.8005 60.3357 39.8029C60.3357 39.8054 60.3357 39.8078 60.3357 39.8103C60.3357 39.8128 60.3357 39.8152 60.3357 39.8177C60.3357 39.8201 60.3357 39.8226 60.3357 39.825C60.3357 39.8275 60.3357 39.83 60.3357 39.8324C60.3357 39.8349 60.3357 39.8373 60.3357 39.8397C60.3357 39.8422 60.3357 39.8446 60.3357 39.8471C60.3357 39.8495 60.3357 39.852 60.3357 39.8544C60.3357 39.8568 60.3357 39.8593 60.3357 39.8617C60.3357 39.8641 60.3357 39.8666 60.3357 39.869C60.3357 39.8714 60.3357 39.8739 60.3357 39.8763C60.3357 39.8787 60.3357 39.8812 60.3357 39.8836C60.3357 39.886 60.3357 39.8884 60.3357 39.8908C60.3357 39.8933 60.3357 39.8957 60.3357 39.8981C60.3357 39.9005 60.3357 39.9029 60.3357 39.9053C60.3357 39.9077 60.3357 39.9101 60.3357 39.9126C60.3357 39.915 60.3357 39.9174 60.3357 39.9198C60.3357 39.9222 60.3357 39.9246 60.3357 39.927C60.3357 39.9294 60.3357 39.9318 60.3357 39.9342C60.3357 39.9365 60.3357 39.9389 60.3357 39.9413C60.3357 39.9437 60.3357 39.9461 60.3357 39.9485C60.3357 39.9509 60.3357 39.9533 60.3357 39.9556C60.3357 39.958 60.3357 39.9604 60.3357 39.9628C60.3357 39.9651 60.3357 39.9675 60.3357 39.9699C60.3357 39.9722 60.3357 39.9746 60.3357 39.977C60.3357 39.9793 60.3357 39.9817 60.3357 39.9841C60.3357 39.9864 60.3357 39.9888 60.3357 39.9911C60.3357 39.9935 60.3357 39.9958 60.3357 39.9982C60.3357 40.0005 60.3357 40.0029 60.3357 40.0052C60.3357 40.0076 60.3357 40.0099 60.3357 40.0122C60.3357 40.0146 60.3357 40.0169 60.3357 40.0193C60.3357 40.0216 60.3357 40.0239 60.3357 40.0262C60.3357 40.0286 60.3357 40.0309 60.3357 40.0332C60.3357 40.0355 60.3357 40.0379 60.3357 40.0402C60.3357 40.0425 60.3357 40.0448 60.3357 40.0471C60.3357 40.0494 60.3357 40.0517 60.3357 40.054C60.3357 40.0564 60.3357 40.0587 60.3357 40.061C60.3357 40.0633 60.3357 40.0655 60.3357 40.0678C60.3357 40.0701 60.3357 40.0724 60.3357 40.0747C60.3357 40.077 60.3357 40.0793 60.3357 40.0816C60.3357 40.0839 60.3357 40.0861 60.3357 40.0884C60.3357 40.0907 60.3357 40.093 60.3357 40.0952C60.3357 40.0975 60.3357 40.0998 60.3357 40.102C60.3357 40.1043 60.3357 40.1065 60.3357 40.1088C60.3357 40.1111 60.3357 40.1133 60.3357 40.1156C60.3357 40.1178 60.3357 40.1201 60.3357 40.1223C60.3357 40.1245 60.3357 40.1268 60.3357 40.129C60.3357 40.1313 60.3357 40.1335 60.3357 40.1357C60.3357 40.138 60.3357 40.1402 60.3357 40.1424C60.3357 40.1446 60.3357 40.1469 60.3357 40.1491C60.3357 40.1513 60.3357 40.1535 60.3357 40.1557C60.3357 40.1579 60.3357 40.1601 60.3357 40.1623C60.3357 40.1645 60.3357 40.1667 60.3357 40.1689C60.3357 40.1711 60.3357 40.1733 60.3357 40.1755C60.3357 40.1777 60.3357 40.1799 60.3357 40.1821C60.3357 40.1843 60.3357 40.1864 60.3357 40.1886C60.3357 40.1908 60.3357 40.193 60.3357 40.1951C60.3357 40.1973 60.3357 40.1995 60.3357 40.2016C60.3357 40.2038 60.3357 40.2059 60.3357 40.2081C60.3357 40.2102 60.3357 40.2124 60.3357 40.2145C60.3357 40.2167 60.3357 40.2188 60.3357 40.221C60.3357 40.2231 60.3357 40.2252 60.3357 40.2274C60.3357 40.2295 60.3357 40.2316 60.3357 40.2338C60.3357 40.2359 60.3357 40.238 60.3357 40.2401C60.3357 40.2422 60.3357 40.2443 60.3357 40.2464C60.3357 40.2486 60.3357 40.2507 60.3357 40.2528C60.3357 40.2549 60.3357 40.257 60.3357 40.259C60.3357 40.2611 60.3357 40.2632 60.3357 40.2653C60.3357 40.2674 60.3357 40.2695 60.3357 40.2715C60.3357 40.2736 60.3357 40.2757 60.3357 40.2778C60.3357 40.2798 60.3357 40.2819 60.3357 40.284C60.3357 40.286 60.3357 40.2881 60.3357 40.2901C60.3357 40.2922 60.3357 40.2942 60.3357 40.2963C60.3357 40.2983 60.3357 40.3003 60.3357 40.3024C60.3357 40.3044 60.3357 40.3064 60.3357 40.3085C60.3357 40.3105 60.3357 40.3125 60.3357 40.3145C60.3357 40.3165 60.3357 40.3186 60.3357 40.3206C60.3357 40.3226 60.3357 40.3246 60.3357 40.3266C60.3357 40.3286 60.3357 40.3306 60.3357 40.3326C60.3357 40.3346 60.3357 40.3365 60.3357 40.3385C60.3357 40.3405 60.3357 40.3425 60.3357 40.3445C60.3357 40.3464 60.3357 40.3484 60.3357 40.3504C60.3357 40.3523 60.3357 40.3543 60.3357 40.3562C60.3357 40.3582 60.3357 40.3602 60.3357 40.3621C60.3357 40.364 60.3357 40.366 60.3357 40.3679C60.3357 40.3699 60.3357 40.3718 60.3357 40.3737C60.3357 40.3756 60.3357 40.3776 60.3357 40.3795C60.3357 40.3814 60.3357 40.3833 60.3357 40.3852C60.3357 40.3871 60.3357 40.389 60.3357 40.3909C60.3357 40.3928 60.3357 40.3947 60.3357 40.3966C60.3357 40.3985 60.3357 40.4004 60.3357 40.4023C60.3357 40.4042 60.3357 40.406 60.3357 40.4079C60.3357 40.4098 60.3357 40.4116 60.3357 40.4135C60.3357 40.4154 60.3357 40.4172 60.3357 40.4191C60.3357 40.4209 60.3357 40.4228 60.3357 40.4246C60.3357 40.4264 60.3357 40.4283 60.3357 40.4301C60.3357 40.4319 60.3357 40.4338 60.3357 40.4356C60.3357 40.4374 60.3357 40.4392 60.3357 40.441C60.3357 40.4428 60.3357 40.4446 60.3357 40.4464C60.3357 40.4482 60.3357 40.45 60.3357 40.4518C60.3357 40.4536 60.3357 40.4554 60.3357 40.4572C60.3357 40.459 60.3357 40.4607 60.3357 40.4625C60.3357 40.4643 60.3357 40.466 60.3357 40.4678C60.3357 40.4696 60.3357 40.4713 60.3357 40.473C60.3357 40.4748 60.3357 40.4765 60.3357 40.4783C60.3357 40.48 60.3357 40.4817 60.3357 40.4835C60.3357 40.4852 60.3357 40.4869 60.3357 40.4886C60.3357 40.4904 60.3357 40.4921 60.3357 40.4938C60.3357 40.4955 60.3357 40.4972 60.3357 40.4989C60.3357 40.5006 60.3357 40.5022 60.3357 40.5039C60.3357 40.5056 60.3357 40.5073 60.3357 40.509C60.3357 40.5106 60.3357 40.5123 60.3357 40.514C60.3357 40.5156 60.3357 40.5173 60.3357 40.5189C60.3357 40.5206 60.3357 40.5222 60.3357 40.5239C60.3357 40.5255 60.3357 40.5271 60.3357 40.5288C60.3357 40.5304 60.3357 40.532 60.3357 40.5336C60.3357 40.5352 60.3357 40.5368 60.3357 40.5384C60.3357 40.54 60.3357 40.5416 60.3357 40.5432C60.3357 40.5448 60.3357 40.5464 60.3357 40.548C60.3357 40.5496 60.3357 40.5511 60.3357 40.5527C60.3357 40.5543 60.3357 40.5559 60.3357 40.5574C60.3357 40.559 60.3357 40.5605 60.3357 40.5621C60.3357 40.5636 60.3357 40.5651 60.3357 40.5667C60.3357 40.5682 60.3357 40.5697 60.3357 40.5713C60.3357 40.5728 60.3357 40.5743 60.3357 40.5758C60.3357 40.5773 60.3357 40.5788 60.3357 40.5803C60.3357 40.5818 60.3357 40.5833 60.3357 40.5848C60.3357 40.5863 60.3357 40.5877 60.3357 40.5892C60.3357 40.5907 60.3357 40.5922 60.3357 40.5936C60.3357 40.5951 60.3357 40.5965 60.3357 40.598C60.3357 40.5994 60.3357 40.6009 60.3357 40.6023C60.3357 40.6037 60.3357 40.6052 60.3357 40.6066C60.3357 40.608 60.3357 40.6094 60.3357 40.6108C60.3357 40.6122 60.3357 40.6136 60.3357 40.615C60.3357 40.6164 60.3357 40.6178 60.3357 40.6192C60.3357 40.6206 60.3357 40.622 60.3357 40.6234C60.3357 40.6247 60.3357 40.6261 60.3357 40.6274C60.3357 40.6288 60.3357 40.6302 60.3357 40.6315C60.3357 40.6328 60.3357 40.6342 60.3357 40.6355C60.3357 40.6369 60.3357 40.6382 60.3357 40.6395C60.3357 40.6408 60.3357 40.6421 60.3357 40.6434C60.3357 40.6447 60.3357 40.646 60.3357 40.6473C60.3357 40.6486 60.3357 40.6499 60.3357 40.6512C60.3357 40.6525 60.3357 40.6537 60.3357 40.655C60.3357 40.6563 60.3357 40.6575 60.3357 40.6588C60.3357 40.66 60.3357 40.6613 60.3357 40.6625C60.3357 40.6638 60.3357 40.665 60.3357 40.6662C60.3357 40.6674 60.3357 40.6687 60.3357 40.6699C60.3357 40.6711 60.3357 40.6723 60.3357 40.6735C60.3357 40.6747 60.3357 40.6759 60.3357 40.6771C60.3357 40.6782 60.3357 40.6794 60.3357 40.6806C60.3357 40.6818 60.3357 40.6829 60.3357 40.6841C60.3357 40.6852 60.3357 40.6864 60.3357 40.6875C60.3357 40.6887 60.3357 40.6898 60.3357 40.6909C60.3357 40.6921 60.3357 40.6932 60.3357 40.6943C60.3357 40.6954 60.3357 40.6965 60.3357 40.6976C60.3357 40.6987 60.3357 40.6998 60.3357 40.7009C60.3357 40.702 60.3357 40.703 60.3357 40.7041C60.3357 40.7052 60.3357 40.7062 60.3357 40.7073C60.3357 40.7084 60.3357 40.7094 60.3357 40.7104C60.3357 40.7115 60.3357 40.7125 60.3357 40.7135C60.3357 40.7146 60.3357 40.7156 60.3357 40.7166C60.3357 40.7176 60.3357 40.7186 60.3357 40.7196C60.3357 40.7206 60.3357 40.7216 60.3357 40.7226C60.3357 40.7236 60.3357 40.7245 60.3357 40.7255C60.3357 40.7265 60.3357 40.7274 60.3357 40.7284C60.3357 40.7293 60.3357 40.7303 60.3357 40.7312C60.3357 40.7322 60.3357 40.7331 60.3357 40.734C60.3357 40.7349 60.3357 40.7359 60.3357 40.7368C60.3357 40.7377 60.3357 40.7386 60.3357 40.7395C60.3357 40.7403 60.3357 40.7412 60.3357 40.7421C60.3357 40.743 60.3357 40.7439 60.3357 40.7447C60.3357 40.7456 60.3357 40.7464 60.3357 40.7473C60.3357 40.7481 60.3357 40.749 60.3357 40.7498C60.3357 40.7506 60.3357 40.7514 60.3357 40.7522C60.3357 40.7531 60.3357 40.7539 60.3357 40.7547C60.3357 40.7555 60.3357 40.7563 60.3357 40.757C60.3357 40.7578 60.3357 40.7586 60.3357 40.7594C60.3357 40.7601 60.3357 40.7609 60.3357 40.7616C60.3357 40.7624 60.3357 40.7631 60.3357 40.7639C60.3357 40.7646 60.3357 40.7653 60.3357 40.766C60.3357 40.7668 60.3357 40.7675 60.3357 40.7682C60.3357 40.7689 60.3357 40.7696 60.3357 40.7703C60.3357 40.7709 60.3357 40.7716 60.3357 40.7723C60.3357 40.773 60.3357 40.7736 60.3357 40.7743C60.3357 40.7749 60.3357 40.7756 60.3357 40.7762C60.3357 40.7768 60.3357 40.7775 60.3357 40.7781C60.3357 40.7787 60.3357 40.7793 60.3357 40.7799C60.3357 40.7805 60.3357 40.7811 60.3357 40.7817C60.3357 40.7823 60.3357 40.7829 60.3357 40.7835C60.3357 40.784 60.3357 40.7846 60.3357 40.7851C60.3357 40.7857 60.3357 40.7862 60.3357 40.7868C60.3357 40.7873 60.3357 40.7878 60.3357 40.7884C60.3357 40.7889 60.3357 40.7894 60.3357 40.7899C60.3357 40.7904 60.3357 40.7909 60.3357 40.7914C60.3357 40.7919 60.3357 40.7924 60.3357 40.7928C60.3357 40.7933 60.3357 40.7937 60.3357 40.7942C60.3357 40.7947 60.3357 40.7951 60.3357 40.7955C60.3357 40.796 60.3357 40.7964 60.3357 40.7968C60.3357 40.7972 60.3357 40.7976 60.3357 40.798C60.3357 40.7984 60.3357 40.7988 60.3357 40.7992C60.3357 40.7996 60.3357 40.8 60.3357 40.8003C60.3357 40.8007 60.3357 40.801 60.3357 40.8014C60.3357 40.8017 60.3357 40.8021 60.3357 40.8024C60.3357 40.8027 60.3357 40.8031 60.3357 40.8034C60.3357 40.8037 60.3357 40.804 60.3357 40.8043C60.3357 40.8046 60.3357 40.8048 60.3357 40.8051C60.3357 40.8054 60.3357 40.8057 60.3357 40.8059C60.3357 40.8062 60.3357 40.8064 60.3357 40.8067C60.3357 40.8069 60.3357 40.8071 60.3357 40.8074C60.3357 40.8076 60.3357 40.8078 60.3357 40.808H64.3357C64.3357 40.8078 64.3357 40.8076 64.3357 40.8074C64.3357 40.8071 64.3357 40.8069 64.3357 40.8067C64.3357 40.8064 64.3357 40.8062 64.3357 40.8059C64.3357 40.8057 64.3357 40.8054 64.3357 40.8051C64.3357 40.8048 64.3357 40.8046 64.3357 40.8043C64.3357 40.804 64.3357 40.8037 64.3357 40.8034C64.3357 40.8031 64.3357 40.8027 64.3357 40.8024C64.3357 40.8021 64.3357 40.8017 64.3357 40.8014C64.3357 40.801 64.3357 40.8007 64.3357 40.8003C64.3357 40.8 64.3357 40.7996 64.3357 40.7992C64.3357 40.7988 64.3357 40.7984 64.3357 40.798C64.3357 40.7976 64.3357 40.7972 64.3357 40.7968C64.3357 40.7964 64.3357 40.796 64.3357 40.7955C64.3357 40.7951 64.3357 40.7947 64.3357 40.7942C64.3357 40.7937 64.3357 40.7933 64.3357 40.7928C64.3357 40.7924 64.3357 40.7919 64.3357 40.7914C64.3357 40.7909 64.3357 40.7904 64.3357 40.7899C64.3357 40.7894 64.3357 40.7889 64.3357 40.7884C64.3357 40.7878 64.3357 40.7873 64.3357 40.7868C64.3357 40.7862 64.3357 40.7857 64.3357 40.7851C64.3357 40.7846 64.3357 40.784 64.3357 40.7835C64.3357 40.7829 64.3357 40.7823 64.3357 40.7817C64.3357 40.7811 64.3357 40.7805 64.3357 40.7799C64.3357 40.7793 64.3357 40.7787 64.3357 40.7781C64.3357 40.7775 64.3357 40.7768 64.3357 40.7762C64.3357 40.7756 64.3357 40.7749 64.3357 40.7743C64.3357 40.7736 64.3357 40.773 64.3357 40.7723C64.3357 40.7716 64.3357 40.7709 64.3357 40.7703C64.3357 40.7696 64.3357 40.7689 64.3357 40.7682C64.3357 40.7675 64.3357 40.7668 64.3357 40.766C64.3357 40.7653 64.3357 40.7646 64.3357 40.7639C64.3357 40.7631 64.3357 40.7624 64.3357 40.7616C64.3357 40.7609 64.3357 40.7601 64.3357 40.7594C64.3357 40.7586 64.3357 40.7578 64.3357 40.757C64.3357 40.7563 64.3357 40.7555 64.3357 40.7547C64.3357 40.7539 64.3357 40.7531 64.3357 40.7522C64.3357 40.7514 64.3357 40.7506 64.3357 40.7498C64.3357 40.749 64.3357 40.7481 64.3357 40.7473C64.3357 40.7464 64.3357 40.7456 64.3357 40.7447C64.3357 40.7439 64.3357 40.743 64.3357 40.7421C64.3357 40.7412 64.3357 40.7403 64.3357 40.7395C64.3357 40.7386 64.3357 40.7377 64.3357 40.7368C64.3357 40.7359 64.3357 40.7349 64.3357 40.734C64.3357 40.7331 64.3357 40.7322 64.3357 40.7312C64.3357 40.7303 64.3357 40.7293 64.3357 40.7284C64.3357 40.7274 64.3357 40.7265 64.3357 40.7255C64.3357 40.7245 64.3357 40.7236 64.3357 40.7226C64.3357 40.7216 64.3357 40.7206 64.3357 40.7196C64.3357 40.7186 64.3357 40.7176 64.3357 40.7166C64.3357 40.7156 64.3357 40.7146 64.3357 40.7135C64.3357 40.7125 64.3357 40.7115 64.3357 40.7104C64.3357 40.7094 64.3357 40.7084 64.3357 40.7073C64.3357 40.7062 64.3357 40.7052 64.3357 40.7041C64.3357 40.703 64.3357 40.702 64.3357 40.7009C64.3357 40.6998 64.3357 40.6987 64.3357 40.6976C64.3357 40.6965 64.3357 40.6954 64.3357 40.6943C64.3357 40.6932 64.3357 40.6921 64.3357 40.6909C64.3357 40.6898 64.3357 40.6887 64.3357 40.6875C64.3357 40.6864 64.3357 40.6852 64.3357 40.6841C64.3357 40.6829 64.3357 40.6818 64.3357 40.6806C64.3357 40.6794 64.3357 40.6782 64.3357 40.6771C64.3357 40.6759 64.3357 40.6747 64.3357 40.6735C64.3357 40.6723 64.3357 40.6711 64.3357 40.6699C64.3357 40.6687 64.3357 40.6674 64.3357 40.6662C64.3357 40.665 64.3357 40.6638 64.3357 40.6625C64.3357 40.6613 64.3357 40.66 64.3357 40.6588C64.3357 40.6575 64.3357 40.6563 64.3357 40.655C64.3357 40.6537 64.3357 40.6525 64.3357 40.6512C64.3357 40.6499 64.3357 40.6486 64.3357 40.6473C64.3357 40.646 64.3357 40.6447 64.3357 40.6434C64.3357 40.6421 64.3357 40.6408 64.3357 40.6395C64.3357 40.6382 64.3357 40.6369 64.3357 40.6355C64.3357 40.6342 64.3357 40.6328 64.3357 40.6315C64.3357 40.6302 64.3357 40.6288 64.3357 40.6274C64.3357 40.6261 64.3357 40.6247 64.3357 40.6234C64.3357 40.622 64.3357 40.6206 64.3357 40.6192C64.3357 40.6178 64.3357 40.6164 64.3357 40.615C64.3357 40.6136 64.3357 40.6122 64.3357 40.6108C64.3357 40.6094 64.3357 40.608 64.3357 40.6066C64.3357 40.6052 64.3357 40.6037 64.3357 40.6023C64.3357 40.6009 64.3357 40.5994 64.3357 40.598C64.3357 40.5965 64.3357 40.5951 64.3357 40.5936C64.3357 40.5922 64.3357 40.5907 64.3357 40.5892C64.3357 40.5877 64.3357 40.5863 64.3357 40.5848C64.3357 40.5833 64.3357 40.5818 64.3357 40.5803C64.3357 40.5788 64.3357 40.5773 64.3357 40.5758C64.3357 40.5743 64.3357 40.5728 64.3357 40.5713C64.3357 40.5697 64.3357 40.5682 64.3357 40.5667C64.3357 40.5651 64.3357 40.5636 64.3357 40.5621C64.3357 40.5605 64.3357 40.559 64.3357 40.5574C64.3357 40.5559 64.3357 40.5543 64.3357 40.5527C64.3357 40.5511 64.3357 40.5496 64.3357 40.548C64.3357 40.5464 64.3357 40.5448 64.3357 40.5432C64.3357 40.5416 64.3357 40.54 64.3357 40.5384C64.3357 40.5368 64.3357 40.5352 64.3357 40.5336C64.3357 40.532 64.3357 40.5304 64.3357 40.5288C64.3357 40.5271 64.3357 40.5255 64.3357 40.5239C64.3357 40.5222 64.3357 40.5206 64.3357 40.5189C64.3357 40.5173 64.3357 40.5156 64.3357 40.514C64.3357 40.5123 64.3357 40.5106 64.3357 40.509C64.3357 40.5073 64.3357 40.5056 64.3357 40.5039C64.3357 40.5022 64.3357 40.5006 64.3357 40.4989C64.3357 40.4972 64.3357 40.4955 64.3357 40.4938C64.3357 40.4921 64.3357 40.4904 64.3357 40.4886C64.3357 40.4869 64.3357 40.4852 64.3357 40.4835C64.3357 40.4817 64.3357 40.48 64.3357 40.4783C64.3357 40.4765 64.3357 40.4748 64.3357 40.473C64.3357 40.4713 64.3357 40.4696 64.3357 40.4678C64.3357 40.466 64.3357 40.4643 64.3357 40.4625C64.3357 40.4607 64.3357 40.459 64.3357 40.4572C64.3357 40.4554 64.3357 40.4536 64.3357 40.4518C64.3357 40.45 64.3357 40.4482 64.3357 40.4464C64.3357 40.4446 64.3357 40.4428 64.3357 40.441C64.3357 40.4392 64.3357 40.4374 64.3357 40.4356C64.3357 40.4338 64.3357 40.4319 64.3357 40.4301C64.3357 40.4283 64.3357 40.4264 64.3357 40.4246C64.3357 40.4228 64.3357 40.4209 64.3357 40.4191C64.3357 40.4172 64.3357 40.4154 64.3357 40.4135C64.3357 40.4116 64.3357 40.4098 64.3357 40.4079C64.3357 40.406 64.3357 40.4042 64.3357 40.4023C64.3357 40.4004 64.3357 40.3985 64.3357 40.3966C64.3357 40.3947 64.3357 40.3928 64.3357 40.3909C64.3357 40.389 64.3357 40.3871 64.3357 40.3852C64.3357 40.3833 64.3357 40.3814 64.3357 40.3795C64.3357 40.3776 64.3357 40.3756 64.3357 40.3737C64.3357 40.3718 64.3357 40.3699 64.3357 40.3679C64.3357 40.366 64.3357 40.364 64.3357 40.3621C64.3357 40.3602 64.3357 40.3582 64.3357 40.3562C64.3357 40.3543 64.3357 40.3523 64.3357 40.3504C64.3357 40.3484 64.3357 40.3464 64.3357 40.3445C64.3357 40.3425 64.3357 40.3405 64.3357 40.3385C64.3357 40.3365 64.3357 40.3346 64.3357 40.3326C64.3357 40.3306 64.3357 40.3286 64.3357 40.3266C64.3357 40.3246 64.3357 40.3226 64.3357 40.3206C64.3357 40.3186 64.3357 40.3165 64.3357 40.3145C64.3357 40.3125 64.3357 40.3105 64.3357 40.3085C64.3357 40.3064 64.3357 40.3044 64.3357 40.3024C64.3357 40.3003 64.3357 40.2983 64.3357 40.2963C64.3357 40.2942 64.3357 40.2922 64.3357 40.2901C64.3357 40.2881 64.3357 40.286 64.3357 40.284C64.3357 40.2819 64.3357 40.2798 64.3357 40.2778C64.3357 40.2757 64.3357 40.2736 64.3357 40.2715C64.3357 40.2695 64.3357 40.2674 64.3357 40.2653C64.3357 40.2632 64.3357 40.2611 64.3357 40.259C64.3357 40.257 64.3357 40.2549 64.3357 40.2528C64.3357 40.2507 64.3357 40.2486 64.3357 40.2464C64.3357 40.2443 64.3357 40.2422 64.3357 40.2401C64.3357 40.238 64.3357 40.2359 64.3357 40.2338C64.3357 40.2316 64.3357 40.2295 64.3357 40.2274C64.3357 40.2252 64.3357 40.2231 64.3357 40.221C64.3357 40.2188 64.3357 40.2167 64.3357 40.2145C64.3357 40.2124 64.3357 40.2102 64.3357 40.2081C64.3357 40.2059 64.3357 40.2038 64.3357 40.2016C64.3357 40.1995 64.3357 40.1973 64.3357 40.1951C64.3357 40.193 64.3357 40.1908 64.3357 40.1886C64.3357 40.1864 64.3357 40.1843 64.3357 40.1821C64.3357 40.1799 64.3357 40.1777 64.3357 40.1755C64.3357 40.1733 64.3357 40.1711 64.3357 40.1689C64.3357 40.1667 64.3357 40.1645 64.3357 40.1623C64.3357 40.1601 64.3357 40.1579 64.3357 40.1557C64.3357 40.1535 64.3357 40.1513 64.3357 40.1491C64.3357 40.1469 64.3357 40.1446 64.3357 40.1424C64.3357 40.1402 64.3357 40.138 64.3357 40.1357C64.3357 40.1335 64.3357 40.1313 64.3357 40.129C64.3357 40.1268 64.3357 40.1245 64.3357 40.1223C64.3357 40.1201 64.3357 40.1178 64.3357 40.1156C64.3357 40.1133 64.3357 40.1111 64.3357 40.1088C64.3357 40.1065 64.3357 40.1043 64.3357 40.102C64.3357 40.0998 64.3357 40.0975 64.3357 40.0952C64.3357 40.093 64.3357 40.0907 64.3357 40.0884C64.3357 40.0861 64.3357 40.0839 64.3357 40.0816C64.3357 40.0793 64.3357 40.077 64.3357 40.0747C64.3357 40.0724 64.3357 40.0701 64.3357 40.0678C64.3357 40.0655 64.3357 40.0633 64.3357 40.061C64.3357 40.0587 64.3357 40.0564 64.3357 40.054C64.3357 40.0517 64.3357 40.0494 64.3357 40.0471C64.3357 40.0448 64.3357 40.0425 64.3357 40.0402C64.3357 40.0379 64.3357 40.0355 64.3357 40.0332C64.3357 40.0309 64.3357 40.0286 64.3357 40.0262C64.3357 40.0239 64.3357 40.0216 64.3357 40.0193C64.3357 40.0169 64.3357 40.0146 64.3357 40.0122C64.3357 40.0099 64.3357 40.0076 64.3357 40.0052C64.3357 40.0029 64.3357 40.0005 64.3357 39.9982C64.3357 39.9958 64.3357 39.9935 64.3357 39.9911C64.3357 39.9888 64.3357 39.9864 64.3357 39.9841C64.3357 39.9817 64.3357 39.9793 64.3357 39.977C64.3357 39.9746 64.3357 39.9722 64.3357 39.9699C64.3357 39.9675 64.3357 39.9651 64.3357 39.9628C64.3357 39.9604 64.3357 39.958 64.3357 39.9556C64.3357 39.9533 64.3357 39.9509 64.3357 39.9485C64.3357 39.9461 64.3357 39.9437 64.3357 39.9413C64.3357 39.9389 64.3357 39.9365 64.3357 39.9342C64.3357 39.9318 64.3357 39.9294 64.3357 39.927C64.3357 39.9246 64.3357 39.9222 64.3357 39.9198C64.3357 39.9174 64.3357 39.915 64.3357 39.9126C64.3357 39.9101 64.3357 39.9077 64.3357 39.9053C64.3357 39.9029 64.3357 39.9005 64.3357 39.8981C64.3357 39.8957 64.3357 39.8933 64.3357 39.8908C64.3357 39.8884 64.3357 39.886 64.3357 39.8836C64.3357 39.8812 64.3357 39.8787 64.3357 39.8763C64.3357 39.8739 64.3357 39.8714 64.3357 39.869C64.3357 39.8666 64.3357 39.8641 64.3357 39.8617C64.3357 39.8593 64.3357 39.8568 64.3357 39.8544C64.3357 39.852 64.3357 39.8495 64.3357 39.8471C64.3357 39.8446 64.3357 39.8422 64.3357 39.8397C64.3357 39.8373 64.3357 39.8349 64.3357 39.8324C64.3357 39.83 64.3357 39.8275 64.3357 39.825C64.3357 39.8226 64.3357 39.8201 64.3357 39.8177C64.3357 39.8152 64.3357 39.8128 64.3357 39.8103C64.3357 39.8078 64.3357 39.8054 64.3357 39.8029C64.3357 39.8005 64.3357 39.798 64.3357 39.7955C64.3357 39.7931 64.3357 39.7906 64.3357 39.7881C64.3357 39.7856 64.3357 39.7832 64.3357 39.7807C64.3357 39.7782 64.3357 39.7758 64.3357 39.7733C64.3357 39.7708 64.3357 39.7683 64.3357 39.7658C64.3357 39.7634 64.3357 39.7609 64.3357 39.7584C64.3357 39.7559 64.3357 39.7534 64.3357 39.751C64.3357 39.7485 64.3357 39.746 64.3357 39.7435C64.3357 39.741 64.3357 39.7385 64.3357 39.736C64.3357 39.7335 64.3357 39.731 64.3357 39.7286C64.3357 39.7261 64.3357 39.7236 64.3357 39.7211C64.3357 39.7186 64.3357 39.7161 64.3357 39.7136C64.3357 39.7111 64.3357 39.7086 64.3357 39.7061C64.3357 39.7036 64.3357 39.7011 64.3357 39.6986C64.3357 39.6961 64.3357 39.6936 64.3357 39.6911C64.3357 39.6886 64.3357 39.6861 64.3357 39.6836C64.3357 39.681 64.3357 39.6785 64.3357 39.676C64.3357 39.6735 64.3357 39.671 64.3357 39.6685C64.3357 39.666 64.3357 39.6635 64.3357 39.661C64.3357 39.6584 64.3357 39.6559 64.3357 39.6534C64.3357 39.6509 64.3357 39.6484 64.3357 39.6459C64.3357 39.6434 64.3357 39.6408 64.3357 39.6383C64.3357 39.6358 64.3357 39.6333 64.3357 39.6308C64.3357 39.6282 64.3357 39.6257 64.3357 39.6232C64.3357 39.6207 64.3357 39.6182 64.3357 39.6156C64.3357 39.6131 64.3357 39.6106 64.3357 39.6081C64.3357 39.6055 64.3357 39.603 64.3357 39.6005C64.3357 39.598 64.3357 39.5954 64.3357 39.5929C64.3357 39.5904 64.3357 39.5878 64.3357 39.5853C64.3357 39.5828 64.3357 39.5803 64.3357 39.5777C64.3357 39.5752 64.3357 39.5727 64.3357 39.5701C64.3357 39.5676 64.3357 39.5651 64.3357 39.5625C64.3357 39.56 64.3357 39.5575 64.3357 39.5549C64.3357 39.5524 64.3357 39.5499 64.3357 39.5473C64.3357 39.5448 64.3357 39.5423 64.3357 39.5397C64.3357 39.5372 64.3357 39.5347 64.3357 39.5321C64.3357 39.5296 64.3357 39.5271 64.3357 39.5245C64.3357 39.522 64.3357 39.5195 64.3357 39.5169C64.3357 39.5144 64.3357 39.5118 64.3357 39.5093C64.3357 39.5068 64.3357 39.5042 64.3357 39.5017C64.3357 39.4992 64.3357 39.4966 64.3357 39.4941C64.3357 39.4915 64.3357 39.489 64.3357 39.4865C64.3357 39.4839 64.3357 39.4814 64.3357 39.4788C64.3357 39.4763 64.3357 39.4738 64.3357 39.4712C64.3357 39.4687 64.3357 39.4662 64.3357 39.4636C64.3357 39.4611 64.3357 39.4585 64.3357 39.456C64.3357 39.4535 64.3357 39.4509 64.3357 39.4484C64.3357 39.4458 64.3357 39.4433 64.3357 39.4408C64.3357 39.4382 64.3357 39.4357 64.3357 39.4331C64.3357 39.4306 64.3357 39.4281 64.3357 39.4255C64.3357 39.423 64.3357 39.4205 64.3357 39.4179C64.3357 39.4154 64.3357 39.4128 64.3357 39.4103C64.3357 39.4078 64.3357 39.4052 64.3357 39.4027C64.3357 39.4002 64.3357 39.3976 64.3357 39.3951C64.3357 39.3925 64.3357 39.39 64.3357 39.3875C64.3357 39.3849 64.3357 39.3824 64.3357 39.3799C64.3357 39.3773 64.3357 39.3748 64.3357 39.3723C64.3357 39.3697 64.3357 39.3672 64.3357 39.3647C64.3357 39.3621 64.3357 39.3596 64.3357 39.3571C64.3357 39.3545 64.3357 39.352 64.3357 39.3495C64.3357 39.3469 64.3357 39.3444 64.3357 39.3419C64.3357 39.3393 64.3357 39.3368 64.3357 39.3343C64.3357 39.3317 64.3357 39.3292 64.3357 39.3267C64.3357 39.3242 64.3357 39.3216 64.3357 39.3191C64.3357 39.3166 64.3357 39.314 64.3357 39.3115C64.3357 39.309 64.3357 39.3065 64.3357 39.3039C64.3357 39.3014 64.3357 39.2989 64.3357 39.2964C64.3357 39.2938 64.3357 39.2913 64.3357 39.2888C64.3357 39.2863 64.3357 39.2838 64.3357 39.2812C64.3357 39.2787 64.3357 39.2762 64.3357 39.2737C64.3357 39.2712 64.3357 39.2686 64.3357 39.2661C64.3357 39.2636 64.3357 39.2611 64.3357 39.2586C64.3357 39.2561 64.3357 39.2535 64.3357 39.251C64.3357 39.2485 64.3357 39.246 64.3357 39.2435C64.3357 39.241 64.3357 39.2385 64.3357 39.236C64.3357 39.2335 64.3357 39.2309 64.3357 39.2284C64.3357 39.2259 64.3357 39.2234 64.3357 39.2209C64.3357 39.2184 64.3357 39.2159 64.3357 39.2134C64.3357 39.2109 64.3357 39.2084 64.3357 39.2059C64.3357 39.2034 64.3357 39.2009 64.3357 39.1984C64.3357 39.1959 64.3357 39.1934 64.3357 39.1909C64.3357 39.1884 64.3357 39.1859 64.3357 39.1834C64.3357 39.181 64.3357 39.1785 64.3357 39.176C64.3357 39.1735 64.3357 39.171 64.3357 39.1685C64.3357 39.166 64.3357 39.1635 64.3357 39.161C64.3357 39.1586 64.3357 39.1561 64.3357 39.1536C64.3357 39.1511 64.3357 39.1486 64.3357 39.1461C64.3357 39.1437 64.3357 39.1412 64.3357 39.1387C64.3357 39.1362 64.3357 39.1338 64.3357 39.1313C64.3357 39.1288 64.3357 39.1263 64.3357 39.1239C64.3357 39.1214 64.3357 39.1189 64.3357 39.1165C64.3357 39.114 64.3357 39.1115 64.3357 39.1091C64.3357 39.1066 64.3357 39.1041 64.3357 39.1017C64.3357 39.0992 64.3357 39.0968 64.3357 39.0943C64.3357 39.0919 64.3357 39.0894 64.3357 39.0869C64.3357 39.0845 64.3357 39.082 64.3357 39.0796C64.3357 39.0771 64.3357 39.0747 64.3357 39.0723C64.3357 39.0698 64.3357 39.0674 64.3357 39.0649C64.3357 39.0625 64.3357 39.06 64.3357 39.0576C64.3357 39.0552 64.3357 39.0527 64.3357 39.0503C64.3357 39.0478 64.3357 39.0454 64.3357 39.043C64.3357 39.0406 64.3357 39.0381 64.3357 39.0357C64.3357 39.0333 64.3357 39.0308 64.3357 39.0284C64.3357 39.026 64.3357 39.0236 64.3357 39.0212C64.3357 39.0187 64.3357 39.0163 64.3357 39.0139C64.3357 39.0115 64.3357 39.0091 64.3357 39.0067C64.3357 39.0043 64.3357 39.0018 64.3357 38.9994C64.3357 38.997 64.3357 38.9946 64.3357 38.9922C64.3357 38.9898 64.3357 38.9874 64.3357 38.985C64.3357 38.9826 64.3357 38.9802 64.3357 38.9778C64.3357 38.9754 64.3357 38.9731 64.3357 38.9707C64.3357 38.9683 64.3357 38.9659 64.3357 38.9635C64.3357 38.9611 64.3357 38.9587 64.3357 38.9564C64.3357 38.954 64.3357 38.9516 64.3357 38.9492C64.3357 38.9469 64.3357 38.9445 64.3357 38.9421C64.3357 38.9398 64.3357 38.9374 64.3357 38.935C64.3357 38.9327 64.3357 38.9303 64.3357 38.9279C64.3357 38.9256 64.3357 38.9232 64.3357 38.9209C64.3357 38.9185 64.3357 38.9162 64.3357 38.9138C64.3357 38.9115 64.3357 38.9091 64.3357 38.9068C64.3357 38.9044 64.3357 38.9021 64.3357 38.8997C64.3357 38.8974 64.3357 38.8951 64.3357 38.8927C64.3357 38.8904 64.3357 38.8881 64.3357 38.8857C64.3357 38.8834 64.3357 38.8811 64.3357 38.8788C64.3357 38.8764 64.3357 38.8741 64.3357 38.8718C64.3357 38.8695 64.3357 38.8672 64.3357 38.8649C64.3357 38.8626 64.3357 38.8603 64.3357 38.8579C64.3357 38.8556 64.3357 38.8533 64.3357 38.851C64.3357 38.8487 64.3357 38.8464 64.3357 38.8442C64.3357 38.8419 64.3357 38.8396 64.3357 38.8373C64.3357 38.835 64.3357 38.8327 64.3357 38.8304C64.3357 38.8281 64.3357 38.8259 64.3357 38.8236C64.3357 38.8213 64.3357 38.819 64.3357 38.8168C64.3357 38.8145 64.3357 38.8122 64.3357 38.81C64.3357 38.8077 64.3357 38.8055 64.3357 38.8032C64.3357 38.8009 64.3357 38.7987 64.3357 38.7964C64.3357 38.7942 64.3357 38.7919 64.3357 38.7897C64.3357 38.7874 64.3357 38.7852 64.3357 38.783C64.3357 38.7807 64.3357 38.7785 64.3357 38.7763C64.3357 38.774 64.3357 38.7718 64.3357 38.7696C64.3357 38.7674 64.3357 38.7651 64.3357 38.7629C64.3357 38.7607 64.3357 38.7585 64.3357 38.7563C64.3357 38.7541 64.3357 38.7519 64.3357 38.7497C64.3357 38.7475 64.3357 38.7453 64.3357 38.7431C64.3357 38.7409 64.3357 38.7387 64.3357 38.7365C64.3357 38.7343 64.3357 38.7321 64.3357 38.7299C64.3357 38.7277 64.3357 38.7256 64.3357 38.7234C64.3357 38.7212 64.3357 38.719 64.3357 38.7169C64.3357 38.7147 64.3357 38.7125 64.3357 38.7104C64.3357 38.7082 64.3357 38.7061 64.3357 38.7039C64.3357 38.7018 64.3357 38.6996 64.3357 38.6975C64.3357 38.6953 64.3357 38.6932 64.3357 38.691C64.3357 38.6889 64.3357 38.6868 64.3357 38.6846C64.3357 38.6825 64.3357 38.6804 64.3357 38.6782C64.3357 38.6761 64.3357 38.674 64.3357 38.6719C64.3357 38.6698 64.3357 38.6677 64.3357 38.6656C64.3357 38.6634 64.3357 38.6613 64.3357 38.6592C64.3357 38.6571 64.3357 38.655 64.3357 38.653C64.3357 38.6509 64.3357 38.6488 64.3357 38.6467C64.3357 38.6446 64.3357 38.6425 64.3357 38.6404C64.3357 38.6384 64.3357 38.6363 64.3357 38.6342C64.3357 38.6322 64.3357 38.6301 64.3357 38.628C64.3357 38.626 64.3357 38.6239 64.3357 38.6219C64.3357 38.6198 64.3357 38.6178 64.3357 38.6157C64.3357 38.6137 64.3357 38.6117 64.3357 38.6096C64.3357 38.6076 64.3357 38.6056 64.3357 38.6035C64.3357 38.6015 64.3357 38.5995 64.3357 38.5975C64.3357 38.5954 64.3357 38.5934 64.3357 38.5914C64.3357 38.5894 64.3357 38.5874 64.3357 38.5854C64.3357 38.5834 64.3357 38.5814 64.3357 38.5794C64.3357 38.5774 64.3357 38.5754 64.3357 38.5735C64.3357 38.5715 64.3357 38.5695 64.3357 38.5675C64.3357 38.5656 64.3357 38.5636 64.3357 38.5616C64.3357 38.5597 64.3357 38.5577 64.3357 38.5557C64.3357 38.5538 64.3357 38.5518 64.3357 38.5499C64.3357 38.548 64.3357 38.546 64.3357 38.5441C64.3357 38.5421 64.3357 38.5402 64.3357 38.5383C64.3357 38.5364 64.3357 38.5344 64.3357 38.5325C64.3357 38.5306 64.3357 38.5287 64.3357 38.5268C64.3357 38.5249 64.3357 38.523 64.3357 38.5211C64.3357 38.5192 64.3357 38.5173 64.3357 38.5154C64.3357 38.5135 64.3357 38.5116 64.3357 38.5097C64.3357 38.5078 64.3357 38.506 64.3357 38.5041C64.3357 38.5022 64.3357 38.5004 64.3357 38.4985C64.3357 38.4966 64.3357 38.4948 64.3357 38.4929C64.3357 38.4911 64.3357 38.4892 64.3357 38.4874C64.3357 38.4856 64.3357 38.4837 64.3357 38.4819C64.3357 38.4801 64.3357 38.4782 64.3357 38.4764C64.3357 38.4746 64.3357 38.4728 64.3357 38.471C64.3357 38.4692 64.3357 38.4674 64.3357 38.4656C64.3357 38.4638 64.3357 38.462 64.3357 38.4602C64.3357 38.4584 64.3357 38.4566 64.3357 38.4548C64.3357 38.453 64.3357 38.4513 64.3357 38.4495C64.3357 38.4477 64.3357 38.446 64.3357 38.4442C64.3357 38.4424 64.3357 38.4407 64.3357 38.4389C64.3357 38.4372 64.3357 38.4355 64.3357 38.4337C64.3357 38.432 64.3357 38.4302 64.3357 38.4285C64.3357 38.4268 64.3357 38.4251 64.3357 38.4234C64.3357 38.4216 64.3357 38.4199 64.3357 38.4182C64.3357 38.4165 64.3357 38.4148 64.3357 38.4131C64.3357 38.4114 64.3357 38.4097 64.3357 38.4081C64.3357 38.4064 64.3357 38.4047 64.3357 38.403C64.3357 38.4014 64.3357 38.3997 64.3357 38.398C64.3357 38.3964 64.3357 38.3947 64.3357 38.3931C64.3357 38.3914 64.3357 38.3898 64.3357 38.3881C64.3357 38.3865 64.3357 38.3849 64.3357 38.3832C64.3357 38.3816 64.3357 38.38 64.3357 38.3784C64.3357 38.3768 64.3357 38.3752 64.3357 38.3736C64.3357 38.3719 64.3357 38.3703 64.3357 38.3688C64.3357 38.3672 64.3357 38.3656 64.3357 38.364C64.3357 38.3624 64.3357 38.3608 64.3357 38.3593C64.3357 38.3577 64.3357 38.3561 64.3357 38.3546C64.3357 38.353 64.3357 38.3515 64.3357 38.3499C64.3357 38.3484 64.3357 38.3469 64.3357 38.3453C64.3357 38.3438 64.3357 38.3423 64.3357 38.3407C64.3357 38.3392 64.3357 38.3377 64.3357 38.3362C64.3357 38.3347 64.3357 38.3332 64.3357 38.3317C64.3357 38.3302 64.3357 38.3287 64.3357 38.3272C64.3357 38.3257 64.3357 38.3242 64.3357 38.3228C64.3357 38.3213 64.3357 38.3198 64.3357 38.3184C64.3357 38.3169 64.3357 38.3155 64.3357 38.314C64.3357 38.3126 64.3357 38.3111 64.3357 38.3097C64.3357 38.3083 64.3357 38.3068 64.3357 38.3054C64.3357 38.304 64.3357 38.3026 64.3357 38.3012C64.3357 38.2998 64.3357 38.2983 64.3357 38.297C64.3357 38.2956 64.3357 38.2942 64.3357 38.2928C64.3357 38.2914 64.3357 38.29 64.3357 38.2886C64.3357 38.2873 64.3357 38.2859 64.3357 38.2845C64.3357 38.2832 64.3357 38.2818 64.3357 38.2805C64.3357 38.2791 64.3357 38.2778 64.3357 38.2765C64.3357 38.2751 64.3357 38.2738 64.3357 38.2725C64.3357 38.2712 64.3357 38.2699 64.3357 38.2686C64.3357 38.2673 64.3357 38.266 64.3357 38.2647C64.3357 38.2634 64.3357 38.2621 64.3357 38.2608C64.3357 38.2595 64.3357 38.2583 64.3357 38.257C64.3357 38.2557 64.3357 38.2545 64.3357 38.2532C64.3357 38.252 64.3357 38.2507 64.3357 38.2495C64.3357 38.2482 64.3357 38.247 64.3357 38.2458C64.3357 38.2446 64.3357 38.2433 64.3357 38.2421C64.3357 38.2409 64.3357 38.2397 64.3357 38.2385C64.3357 38.2373 64.3357 38.2361 64.3357 38.2349C64.3357 38.2338 64.3357 38.2326 64.3357 38.2314C64.3357 38.2302 64.3357 38.2291 64.3357 38.2279C64.3357 38.2268 64.3357 38.2256 64.3357 38.2245C64.3357 38.2233 64.3357 38.2222 64.3357 38.2211C64.3357 38.2199 64.3357 38.2188 64.3357 38.2177C64.3357 38.2166 64.3357 38.2155 64.3357 38.2144C64.3357 38.2133 64.3357 38.2122 64.3357 38.2111C64.3357 38.21 64.3357 38.209 64.3357 38.2079C64.3357 38.2068 64.3357 38.2057 64.3357 38.2047C64.3357 38.2036 64.3357 38.2026 64.3357 38.2015C64.3357 38.2005 64.3357 38.1995 64.3357 38.1984C64.3357 38.1974 64.3357 38.1964 64.3357 38.1954C64.3357 38.1944 64.3357 38.1934 64.3357 38.1924C64.3357 38.1914 64.3357 38.1904 64.3357 38.1894C64.3357 38.1884 64.3357 38.1875 64.3357 38.1865C64.3357 38.1855 64.3357 38.1846 64.3357 38.1836C64.3357 38.1827 64.3357 38.1817 64.3357 38.1808C64.3357 38.1798 64.3357 38.1789 64.3357 38.178C64.3357 38.1771 64.3357 38.1761 64.3357 38.1752C64.3357 38.1743 64.3357 38.1734 64.3357 38.1725C64.3357 38.1716 64.3357 38.1708 64.3357 38.1699C64.3357 38.169 64.3357 38.1681 64.3357 38.1673C64.3357 38.1664 64.3357 38.1656 64.3357 38.1647C64.3357 38.1639 64.3357 38.163 64.3357 38.1622C64.3357 38.1614 64.3357 38.1606 64.3357 38.1597C64.3357 38.1589 64.3357 38.1581 64.3357 38.1573C64.3357 38.1565 64.3357 38.1557 64.3357 38.155C64.3357 38.1542 64.3357 38.1534 64.3357 38.1526C64.3357 38.1519 64.3357 38.1511 64.3357 38.1504C64.3357 38.1496 64.3357 38.1489 64.3357 38.1481C64.3357 38.1474 64.3357 38.1467 64.3357 38.146C64.3357 38.1452 64.3357 38.1445 64.3357 38.1438C64.3357 38.1431 64.3357 38.1424 64.3357 38.1417C64.3357 38.1411 64.3357 38.1404 64.3357 38.1397C64.3357 38.139 64.3357 38.1384 64.3357 38.1377C64.3357 38.1371 64.3357 38.1364 64.3357 38.1358C64.3357 38.1351 64.3357 38.1345 64.3357 38.1339C64.3357 38.1333 64.3357 38.1327 64.3357 38.1321C64.3357 38.1315 64.3357 38.1309 64.3357 38.1303C64.3357 38.1297 64.3357 38.1291 64.3357 38.1285C64.3357 38.128 64.3357 38.1274 64.3357 38.1269C64.3357 38.1263 64.3357 38.1258 64.3357 38.1252C64.3357 38.1247 64.3357 38.1241 64.3357 38.1236C64.3357 38.1231 64.3357 38.1226 64.3357 38.1221C64.3357 38.1216 64.3357 38.1211 64.3357 38.1206C64.3357 38.1201 64.3357 38.1196 64.3357 38.1192C64.3357 38.1187 64.3357 38.1182 64.3357 38.1178C64.3357 38.1173 64.3357 38.1169 64.3357 38.1165C64.3357 38.116 64.3357 38.1156 64.3357 38.1152C64.3357 38.1148 64.3357 38.1144 64.3357 38.114C64.3357 38.1136 64.3357 38.1132 64.3357 38.1128C64.3357 38.1124 64.3357 38.112 64.3357 38.1117C64.3357 38.1113 64.3357 38.111 64.3357 38.1106C64.3357 38.1103 64.3357 38.1099 64.3357 38.1096C64.3357 38.1093 64.3357 38.1089 64.3357 38.1086C64.3357 38.1083 64.3357 38.108 64.3357 38.1077C64.3357 38.1074 64.3357 38.1071 64.3357 38.1069C64.3357 38.1066 64.3357 38.1063 64.3357 38.1061C64.3357 38.1058 64.3357 38.1056 64.3357 38.1053C64.3357 38.1051 64.3357 38.1049 64.3357 38.1046C64.3357 38.1044 64.3357 38.1042 64.3357 38.104H60.3357ZM60.3357 40.808C60.3357 45.8206 60.2866 48.3732 59.2348 51.099C58.1597 53.8849 55.9807 56.9785 51.2266 62.7252L54.3087 65.2748C59.0187 59.5815 61.6236 56.019 62.9665 52.539C64.3327 48.9988 64.3357 45.6754 64.3357 40.808H60.3357Z" fill="#403366" mask="url(#path-14-outside-1_4044_820)"/>
</g>
<defs>
<filter id="filter0_d_4044_820" x="16.0078" y="21.7764" width="50.9521" height="76.2236" filterUnits="userSpaceOnUse" color-interpolation-filters="sRGB">
<feFlood flood-opacity="0" result="BackgroundImageFix"/>
<feColorMatrix in="SourceAlpha" type="matrix" values="0 0 0 0 0 0 0 0 0 0 0 0 0 0 0 0 0 0 127 0" result="hardAlpha"/>
<feOffset dy="4"/>
<feGaussianBlur stdDeviation="2"/>
<feComposite in2="hardAlpha" operator="out"/>
<feColorMatrix type="matrix" values="0 0 0 0 0 0 0 0 0 0 0 0 0 0 0 0 0 0 0.25 0"/>
<feBlend mode="normal" in2="BackgroundImageFix" result="effect1_dropShadow_4044_820"/>
<feBlend mode="normal" in="SourceGraphic" in2="effect1_dropShadow_4044_820" result="shape"/>
</filter>
</defs>
</svg>
